G04 #@! TF.GenerationSoftware,KiCad,Pcbnew,7.0.5*
G04 #@! TF.CreationDate,2023-06-03T16:25:11+02:00*
G04 #@! TF.ProjectId,avt2464,61767432-3436-4342-9e6b-696361645f70,rev?*
G04 #@! TF.SameCoordinates,Original*
G04 #@! TF.FileFunction,Copper,L2,Bot*
G04 #@! TF.FilePolarity,Positive*
%FSLAX46Y46*%
G04 Gerber Fmt 4.6, Leading zero omitted, Abs format (unit mm)*
G04 Created by KiCad (PCBNEW 7.0.5) date 2023-06-03 16:25:11*
%MOMM*%
%LPD*%
G01*
G04 APERTURE LIST*
G04 #@! TA.AperFunction,ComponentPad*
%ADD10C,1.400000*%
G04 #@! TD*
G04 #@! TA.AperFunction,ComponentPad*
%ADD11O,1.400000X1.400000*%
G04 #@! TD*
G04 #@! TA.AperFunction,ComponentPad*
%ADD12C,1.600000*%
G04 #@! TD*
G04 #@! TA.AperFunction,ComponentPad*
%ADD13O,1.600000X1.600000*%
G04 #@! TD*
G04 #@! TA.AperFunction,ComponentPad*
%ADD14C,2.100000*%
G04 #@! TD*
G04 #@! TA.AperFunction,ComponentPad*
%ADD15C,2.000000*%
G04 #@! TD*
G04 #@! TA.AperFunction,ComponentPad*
%ADD16R,2.400000X2.400000*%
G04 #@! TD*
G04 #@! TA.AperFunction,ComponentPad*
%ADD17C,2.400000*%
G04 #@! TD*
G04 #@! TA.AperFunction,ComponentPad*
%ADD18R,1.600000X1.600000*%
G04 #@! TD*
G04 #@! TA.AperFunction,ComponentPad*
%ADD19R,1.905000X2.000000*%
G04 #@! TD*
G04 #@! TA.AperFunction,ComponentPad*
%ADD20O,1.905000X2.000000*%
G04 #@! TD*
G04 #@! TA.AperFunction,ComponentPad*
%ADD21R,2.000000X2.000000*%
G04 #@! TD*
G04 #@! TA.AperFunction,Conductor*
%ADD22C,0.500000*%
G04 #@! TD*
G04 APERTURE END LIST*
D10*
X45720000Y-40640000D03*
D11*
X45720000Y-48260000D03*
D12*
X38100000Y-27940000D03*
D13*
X38100000Y-35560000D03*
D12*
X73660000Y-28060000D03*
D13*
X73660000Y-35560000D03*
D14*
X48260000Y-43180000D03*
X48260000Y-48180000D03*
X58260000Y-45680000D03*
D15*
X27940000Y-35560000D03*
X27940000Y-30560000D03*
D10*
X43180000Y-40640000D03*
D11*
X43180000Y-48260000D03*
D12*
X40640000Y-35560000D03*
D13*
X40640000Y-27940000D03*
D10*
X43180000Y-35560000D03*
D11*
X43180000Y-27940000D03*
D12*
X68580000Y-27940000D03*
D13*
X68580000Y-35560000D03*
D16*
X30480000Y-48260000D03*
D17*
X30480000Y-43180000D03*
D18*
X81280000Y-30520000D03*
D12*
X81280000Y-34020000D03*
X35560000Y-35560000D03*
D13*
X35560000Y-27940000D03*
D10*
X48260000Y-35560000D03*
D11*
X48260000Y-27940000D03*
D16*
X91440000Y-48260000D03*
D17*
X91440000Y-43180000D03*
D19*
X27940000Y-22860000D03*
D20*
X30480000Y-22860000D03*
X33020000Y-22860000D03*
D15*
X68580000Y-40640000D03*
X68580000Y-45640000D03*
D16*
X91440000Y-35560000D03*
D17*
X91440000Y-30480000D03*
D12*
X33020000Y-27940000D03*
D13*
X33020000Y-35560000D03*
D19*
X53340000Y-22860000D03*
D20*
X55880000Y-22860000D03*
X58420000Y-22860000D03*
D19*
X40640000Y-22860000D03*
D20*
X43180000Y-22860000D03*
X45720000Y-22860000D03*
D10*
X63500000Y-40640000D03*
D11*
X63500000Y-48260000D03*
D18*
X89940000Y-22860000D03*
D12*
X91940000Y-22860000D03*
D10*
X38100000Y-40640000D03*
D11*
X38100000Y-48260000D03*
D14*
X53420000Y-30520000D03*
X53420000Y-35520000D03*
X63420000Y-33020000D03*
D21*
X78740000Y-40720000D03*
D15*
X78740000Y-45720000D03*
D10*
X60960000Y-40640000D03*
D11*
X60960000Y-48260000D03*
D19*
X78740000Y-22860000D03*
D20*
X81280000Y-22860000D03*
X83820000Y-22860000D03*
D22*
X30480000Y-34787767D02*
X30480000Y-38100000D01*
X30480000Y-38100000D02*
X33020000Y-40640000D01*
X27940000Y-22860000D02*
X27940000Y-30560000D01*
X27940000Y-30560000D02*
X27940000Y-32247767D01*
X33020000Y-40640000D02*
X38100000Y-40640000D01*
X27940000Y-32247767D02*
X30480000Y-34787767D01*
X43180000Y-33020000D02*
X43180000Y-35560000D01*
X35560000Y-30480000D02*
X35560000Y-27940000D01*
X30480000Y-22860000D02*
X30480000Y-30480000D01*
X30480000Y-30480000D02*
X35560000Y-30480000D01*
X35560000Y-30480000D02*
X40640000Y-30480000D01*
X40640000Y-30480000D02*
X43180000Y-33020000D01*
X33020000Y-22860000D02*
X33020000Y-27940000D01*
X40640000Y-25400000D02*
X43180000Y-27940000D01*
X40640000Y-22860000D02*
X40640000Y-25400000D01*
X43180000Y-22860000D02*
X45720000Y-20320000D01*
X48260000Y-38100000D02*
X45720000Y-40640000D01*
X48260000Y-35560000D02*
X48260000Y-38100000D01*
X89940000Y-22860000D02*
X83820000Y-22860000D01*
X81280000Y-20320000D02*
X83820000Y-22860000D01*
X40640000Y-35560000D02*
X45720000Y-40640000D01*
X73660000Y-28060000D02*
X73660000Y-20320000D01*
X44330000Y-26550000D02*
X45720000Y-27940000D01*
X44330000Y-24010000D02*
X44330000Y-26550000D01*
X45720000Y-33020000D02*
X48260000Y-35560000D01*
X45720000Y-27940000D02*
X45720000Y-33020000D01*
X43180000Y-22860000D02*
X44330000Y-24010000D01*
X45720000Y-20320000D02*
X73660000Y-20320000D01*
X73660000Y-20320000D02*
X81280000Y-20320000D01*
X58420000Y-38100000D02*
X66040000Y-38100000D01*
X55880000Y-22860000D02*
X66040000Y-33020000D01*
X68660000Y-40720000D02*
X68580000Y-40640000D01*
X78740000Y-40720000D02*
X68660000Y-40720000D01*
X55880000Y-27940000D02*
X55880000Y-35560000D01*
X55880000Y-35560000D02*
X58420000Y-38100000D01*
X45720000Y-22860000D02*
X50800000Y-27940000D01*
X66040000Y-38100000D02*
X68580000Y-40640000D01*
X50800000Y-27940000D02*
X55880000Y-27940000D01*
X66040000Y-33020000D02*
X66040000Y-38100000D01*
X53340000Y-22940000D02*
X63420000Y-33020000D01*
X53340000Y-22860000D02*
X53340000Y-22940000D01*
X38100000Y-27940000D02*
X40640000Y-27940000D01*
X35560000Y-35560000D02*
X38100000Y-35560000D01*
X27940000Y-40640000D02*
X30480000Y-43180000D01*
X27940000Y-35560000D02*
X27940000Y-40640000D01*
X68580000Y-45720000D02*
X78740000Y-45720000D01*
X88900000Y-45720000D02*
X91440000Y-43180000D01*
X78740000Y-45720000D02*
X88900000Y-45720000D01*
X63500000Y-40640000D02*
X68580000Y-45720000D01*
X43180000Y-50800000D02*
X60960000Y-50800000D01*
X81280000Y-34020000D02*
X89900000Y-34020000D01*
X40640000Y-40640000D02*
X40640000Y-43180000D01*
X38100000Y-50800000D02*
X43180000Y-50800000D01*
X86360000Y-27940000D02*
X81280000Y-22860000D01*
X35560000Y-38100000D02*
X38100000Y-38100000D01*
X38100000Y-38100000D02*
X40640000Y-40640000D01*
X30480000Y-48260000D02*
X33020000Y-50800000D01*
X88900000Y-50800000D02*
X91440000Y-48260000D01*
X79740000Y-35560000D02*
X81280000Y-34020000D01*
X43180000Y-48260000D02*
X43180000Y-50800000D01*
X35560000Y-38100000D02*
X33020000Y-35560000D01*
X89900000Y-34020000D02*
X91440000Y-35560000D01*
X91440000Y-48260000D02*
X96520000Y-43180000D01*
X63500000Y-50800000D02*
X88900000Y-50800000D01*
X93980000Y-27940000D02*
X86360000Y-27940000D01*
X91940000Y-25900000D02*
X93980000Y-27940000D01*
X96520000Y-30480000D02*
X93980000Y-27940000D01*
X40640000Y-43180000D02*
X38100000Y-45720000D01*
X91940000Y-22860000D02*
X91940000Y-25900000D01*
X35560000Y-50800000D02*
X38100000Y-50800000D01*
X60960000Y-50800000D02*
X63500000Y-50800000D01*
X96520000Y-35560000D02*
X96520000Y-30480000D01*
X38100000Y-45720000D02*
X35560000Y-45720000D01*
X73660000Y-35560000D02*
X79740000Y-35560000D01*
X73660000Y-35560000D02*
X68580000Y-35560000D01*
X60960000Y-48260000D02*
X60960000Y-50800000D01*
X35560000Y-45720000D02*
X35560000Y-50800000D01*
X96520000Y-43180000D02*
X96520000Y-35560000D01*
X91440000Y-35560000D02*
X96520000Y-35560000D01*
X63500000Y-48260000D02*
X63500000Y-50800000D01*
X33020000Y-50800000D02*
X35560000Y-50800000D01*
X91440000Y-30480000D02*
X81280000Y-30480000D01*
X78740000Y-27940000D02*
X78740000Y-22860000D01*
X81280000Y-30480000D02*
X78740000Y-27940000D01*
X63500000Y-27940000D02*
X58420000Y-22860000D01*
X68580000Y-27940000D02*
X63500000Y-27940000D01*
X43180000Y-40640000D02*
X45720000Y-43180000D01*
X45720000Y-43180000D02*
X48260000Y-43180000D01*
X50800000Y-43180000D02*
X55760000Y-43180000D01*
X38100000Y-48260000D02*
X40640000Y-45720000D01*
X48260000Y-45720000D02*
X50800000Y-43180000D01*
X40640000Y-45720000D02*
X48260000Y-45720000D01*
X55760000Y-43180000D02*
X58260000Y-45680000D01*
X48260000Y-48180000D02*
X45800000Y-48180000D01*
X45800000Y-48180000D02*
X45720000Y-48260000D01*
X50840000Y-30520000D02*
X53420000Y-30520000D01*
X48260000Y-27940000D02*
X50840000Y-30520000D01*
X53420000Y-35520000D02*
X58540000Y-40640000D01*
X58540000Y-40640000D02*
X60960000Y-40640000D01*
M02*
