M48
; DRILL file {KiCad 7.0.5} date Sat Jun  3 16:26:33 2023
; FORMAT={-:-/ absolute / metric / decimal}
; #@! TF.CreationDate,2023-06-03T16:26:33+02:00
; #@! TF.GenerationSoftware,Kicad,Pcbnew,7.0.5
; #@! TF.FileFunction,Plated,1,2,PTH
FMAT,2
METRIC
; #@! TA.AperFunction,Plated,PTH,ComponentDrill
T1C0.700
; #@! TA.AperFunction,Plated,PTH,ComponentDrill
T2C0.800
; #@! TA.AperFunction,Plated,PTH,ComponentDrill
T3C1.000
; #@! TA.AperFunction,Plated,PTH,ComponentDrill
T4C1.100
; #@! TA.AperFunction,Plated,PTH,ComponentDrill
T5C1.400
; #@! TA.AperFunction,Plated,PTH,ComponentDrill
T6C1.600
%
G90
G05
T1
X38.1Y-40.64
X38.1Y-48.26
X43.18Y-27.94
X43.18Y-35.56
X43.18Y-40.64
X43.18Y-48.26
X45.72Y-40.64
X45.72Y-48.26
X48.26Y-27.94
X48.26Y-35.56
X60.96Y-40.64
X60.96Y-48.26
X63.5Y-40.64
X63.5Y-48.26
T2
X33.02Y-27.94
X33.02Y-35.56
X35.56Y-27.94
X35.56Y-35.56
X38.1Y-27.94
X38.1Y-35.56
X40.64Y-27.94
X40.64Y-35.56
X68.58Y-27.94
X68.58Y-35.56
X73.66Y-28.06
X73.66Y-35.56
X81.28Y-30.52
X81.28Y-34.02
X89.94Y-22.86
X91.94Y-22.86
T3
X27.94Y-30.56
X27.94Y-35.56
X68.58Y-40.64
X68.58Y-45.64
X78.74Y-40.72
X78.74Y-45.72
T4
X27.94Y-22.86
X30.48Y-22.86
X33.02Y-22.86
X40.64Y-22.86
X43.18Y-22.86
X45.72Y-22.86
X53.34Y-22.86
X55.88Y-22.86
X58.42Y-22.86
X78.74Y-22.86
X81.28Y-22.86
X83.82Y-22.86
T5
X48.26Y-43.18
X48.26Y-48.18
X53.42Y-30.52
X53.42Y-35.52
X58.26Y-45.68
X63.42Y-33.02
T6
X30.48Y-43.18
X30.48Y-48.26
X91.44Y-30.48
X91.44Y-35.56
X91.44Y-43.18
X91.44Y-48.26
T0
M30
