%TF.GenerationSoftware,KiCad,Pcbnew,7.0.5*%
%TF.CreationDate,2023-06-03T16:26:47+02:00*%
%TF.ProjectId,avt2464,61767432-3436-4342-9e6b-696361645f70,rev?*%
%TF.SameCoordinates,Original*%
%TF.FileFunction,Drillmap*%
%TF.FilePolarity,Positive*%
%FSLAX45Y45*%
G04 Gerber Fmt 4.5, Leading zero omitted, Abs format (unit mm)*
G04 Created by KiCad (PCBNEW 7.0.5) date 2023-06-03 16:26:47*
%MOMM*%
%LPD*%
G01*
G04 APERTURE LIST*
%ADD10C,0.100000*%
%ADD11C,0.200000*%
%ADD12C,0.070000*%
%ADD13C,0.080000*%
%ADD14C,0.110000*%
%ADD15C,0.140000*%
%ADD16C,0.160000*%
G04 APERTURE END LIST*
D10*
X1778000Y-1778000D02*
X10414000Y-1778000D01*
X10414000Y-5334000D01*
X1778000Y-5334000D01*
X1778000Y-1778000D01*
D11*
D12*
X3775000Y-4029000D02*
X3845000Y-4099000D01*
X3845000Y-4029000D02*
X3775000Y-4099000D01*
X3775000Y-4791000D02*
X3845000Y-4861000D01*
X3845000Y-4791000D02*
X3775000Y-4861000D01*
X4283000Y-2759000D02*
X4353000Y-2829000D01*
X4353000Y-2759000D02*
X4283000Y-2829000D01*
X4283000Y-3521000D02*
X4353000Y-3591000D01*
X4353000Y-3521000D02*
X4283000Y-3591000D01*
X4283000Y-4029000D02*
X4353000Y-4099000D01*
X4353000Y-4029000D02*
X4283000Y-4099000D01*
X4283000Y-4791000D02*
X4353000Y-4861000D01*
X4353000Y-4791000D02*
X4283000Y-4861000D01*
X4537000Y-4029000D02*
X4607000Y-4099000D01*
X4607000Y-4029000D02*
X4537000Y-4099000D01*
X4537000Y-4791000D02*
X4607000Y-4861000D01*
X4607000Y-4791000D02*
X4537000Y-4861000D01*
X4791000Y-2759000D02*
X4861000Y-2829000D01*
X4861000Y-2759000D02*
X4791000Y-2829000D01*
X4791000Y-3521000D02*
X4861000Y-3591000D01*
X4861000Y-3521000D02*
X4791000Y-3591000D01*
X6061000Y-4029000D02*
X6131000Y-4099000D01*
X6131000Y-4029000D02*
X6061000Y-4099000D01*
X6061000Y-4791000D02*
X6131000Y-4861000D01*
X6131000Y-4791000D02*
X6061000Y-4861000D01*
X6315000Y-4029000D02*
X6385000Y-4099000D01*
X6385000Y-4029000D02*
X6315000Y-4099000D01*
X6315000Y-4791000D02*
X6385000Y-4861000D01*
X6385000Y-4791000D02*
X6315000Y-4861000D01*
D13*
X3342000Y-2794000D02*
G75*
G03*
X3342000Y-2794000I-40000J0D01*
G01*
X3342000Y-3556000D02*
G75*
G03*
X3342000Y-3556000I-40000J0D01*
G01*
X3596000Y-2794000D02*
G75*
G03*
X3596000Y-2794000I-40000J0D01*
G01*
X3596000Y-3556000D02*
G75*
G03*
X3596000Y-3556000I-40000J0D01*
G01*
X3850000Y-2794000D02*
G75*
G03*
X3850000Y-2794000I-40000J0D01*
G01*
X3850000Y-3556000D02*
G75*
G03*
X3850000Y-3556000I-40000J0D01*
G01*
X4104000Y-2794000D02*
G75*
G03*
X4104000Y-2794000I-40000J0D01*
G01*
X4104000Y-3556000D02*
G75*
G03*
X4104000Y-3556000I-40000J0D01*
G01*
X6898000Y-2794000D02*
G75*
G03*
X6898000Y-2794000I-40000J0D01*
G01*
X6898000Y-3556000D02*
G75*
G03*
X6898000Y-3556000I-40000J0D01*
G01*
X7406000Y-2806000D02*
G75*
G03*
X7406000Y-2806000I-40000J0D01*
G01*
X7406000Y-3556000D02*
G75*
G03*
X7406000Y-3556000I-40000J0D01*
G01*
X8168000Y-3052000D02*
G75*
G03*
X8168000Y-3052000I-40000J0D01*
G01*
X8168000Y-3402000D02*
G75*
G03*
X8168000Y-3402000I-40000J0D01*
G01*
X9034000Y-2286000D02*
G75*
G03*
X9034000Y-2286000I-40000J0D01*
G01*
X9234000Y-2286000D02*
G75*
G03*
X9234000Y-2286000I-40000J0D01*
G01*
D10*
X2794000Y-3006000D02*
X2794000Y-3106000D01*
X2744000Y-3056000D02*
X2844000Y-3056000D01*
X2794000Y-3506000D02*
X2794000Y-3606000D01*
X2744000Y-3556000D02*
X2844000Y-3556000D01*
X6858000Y-4014000D02*
X6858000Y-4114000D01*
X6808000Y-4064000D02*
X6908000Y-4064000D01*
X6858000Y-4514000D02*
X6858000Y-4614000D01*
X6808000Y-4564000D02*
X6908000Y-4564000D01*
X7874000Y-4022000D02*
X7874000Y-4122000D01*
X7824000Y-4072000D02*
X7924000Y-4072000D01*
X7874000Y-4522000D02*
X7874000Y-4622000D01*
X7824000Y-4572000D02*
X7924000Y-4572000D01*
D14*
X2832891Y-2324891D02*
X2832891Y-2247109D01*
X2755109Y-2247109D01*
X2755109Y-2324891D01*
X2832891Y-2324891D01*
X3086891Y-2324891D02*
X3086891Y-2247109D01*
X3009109Y-2247109D01*
X3009109Y-2324891D01*
X3086891Y-2324891D01*
X3340891Y-2324891D02*
X3340891Y-2247109D01*
X3263109Y-2247109D01*
X3263109Y-2324891D01*
X3340891Y-2324891D01*
X4102891Y-2324891D02*
X4102891Y-2247109D01*
X4025109Y-2247109D01*
X4025109Y-2324891D01*
X4102891Y-2324891D01*
X4356891Y-2324891D02*
X4356891Y-2247109D01*
X4279109Y-2247109D01*
X4279109Y-2324891D01*
X4356891Y-2324891D01*
X4610891Y-2324891D02*
X4610891Y-2247109D01*
X4533109Y-2247109D01*
X4533109Y-2324891D01*
X4610891Y-2324891D01*
X5372891Y-2324891D02*
X5372891Y-2247109D01*
X5295109Y-2247109D01*
X5295109Y-2324891D01*
X5372891Y-2324891D01*
X5626891Y-2324891D02*
X5626891Y-2247109D01*
X5549109Y-2247109D01*
X5549109Y-2324891D01*
X5626891Y-2324891D01*
X5880891Y-2324891D02*
X5880891Y-2247109D01*
X5803109Y-2247109D01*
X5803109Y-2324891D01*
X5880891Y-2324891D01*
X7912891Y-2324891D02*
X7912891Y-2247109D01*
X7835109Y-2247109D01*
X7835109Y-2324891D01*
X7912891Y-2324891D01*
X8166891Y-2324891D02*
X8166891Y-2247109D01*
X8089109Y-2247109D01*
X8089109Y-2324891D01*
X8166891Y-2324891D01*
X8420891Y-2324891D02*
X8420891Y-2247109D01*
X8343109Y-2247109D01*
X8343109Y-2324891D01*
X8420891Y-2324891D01*
D15*
X4826000Y-4388000D02*
X4896000Y-4318000D01*
X4826000Y-4248000D01*
X4756000Y-4318000D01*
X4826000Y-4388000D01*
X4826000Y-4888000D02*
X4896000Y-4818000D01*
X4826000Y-4748000D01*
X4756000Y-4818000D01*
X4826000Y-4888000D01*
X5342000Y-3122000D02*
X5412000Y-3052000D01*
X5342000Y-2982000D01*
X5272000Y-3052000D01*
X5342000Y-3122000D01*
X5342000Y-3622000D02*
X5412000Y-3552000D01*
X5342000Y-3482000D01*
X5272000Y-3552000D01*
X5342000Y-3622000D01*
X5826000Y-4638000D02*
X5896000Y-4568000D01*
X5826000Y-4498000D01*
X5756000Y-4568000D01*
X5826000Y-4638000D01*
X6342000Y-3372000D02*
X6412000Y-3302000D01*
X6342000Y-3232000D01*
X6272000Y-3302000D01*
X6342000Y-3372000D01*
D16*
X2968000Y-4238000D02*
X3128000Y-4398000D01*
X3128000Y-4238000D02*
X2968000Y-4398000D01*
X3128000Y-4318000D02*
G75*
G03*
X3128000Y-4318000I-80000J0D01*
G01*
X2968000Y-4746000D02*
X3128000Y-4906000D01*
X3128000Y-4746000D02*
X2968000Y-4906000D01*
X3128000Y-4826000D02*
G75*
G03*
X3128000Y-4826000I-80000J0D01*
G01*
X9064000Y-2968000D02*
X9224000Y-3128000D01*
X9224000Y-2968000D02*
X9064000Y-3128000D01*
X9224000Y-3048000D02*
G75*
G03*
X9224000Y-3048000I-80000J0D01*
G01*
X9064000Y-3476000D02*
X9224000Y-3636000D01*
X9224000Y-3476000D02*
X9064000Y-3636000D01*
X9224000Y-3556000D02*
G75*
G03*
X9224000Y-3556000I-80000J0D01*
G01*
X9064000Y-4238000D02*
X9224000Y-4398000D01*
X9224000Y-4238000D02*
X9064000Y-4398000D01*
X9224000Y-4318000D02*
G75*
G03*
X9224000Y-4318000I-80000J0D01*
G01*
X9064000Y-4746000D02*
X9224000Y-4906000D01*
X9224000Y-4746000D02*
X9064000Y-4906000D01*
X9224000Y-4826000D02*
G75*
G03*
X9224000Y-4826000I-80000J0D01*
G01*
D11*
X2033777Y-5650484D02*
X2033777Y-5450484D01*
X2033777Y-5450484D02*
X2081396Y-5450484D01*
X2081396Y-5450484D02*
X2109967Y-5460008D01*
X2109967Y-5460008D02*
X2129015Y-5479055D01*
X2129015Y-5479055D02*
X2138539Y-5498103D01*
X2138539Y-5498103D02*
X2148063Y-5536198D01*
X2148063Y-5536198D02*
X2148063Y-5564770D01*
X2148063Y-5564770D02*
X2138539Y-5602865D01*
X2138539Y-5602865D02*
X2129015Y-5621912D01*
X2129015Y-5621912D02*
X2109967Y-5640960D01*
X2109967Y-5640960D02*
X2081396Y-5650484D01*
X2081396Y-5650484D02*
X2033777Y-5650484D01*
X2233777Y-5650484D02*
X2233777Y-5517150D01*
X2233777Y-5555246D02*
X2243301Y-5536198D01*
X2243301Y-5536198D02*
X2252824Y-5526674D01*
X2252824Y-5526674D02*
X2271872Y-5517150D01*
X2271872Y-5517150D02*
X2290920Y-5517150D01*
X2357586Y-5650484D02*
X2357586Y-5517150D01*
X2357586Y-5450484D02*
X2348063Y-5460008D01*
X2348063Y-5460008D02*
X2357586Y-5469531D01*
X2357586Y-5469531D02*
X2367110Y-5460008D01*
X2367110Y-5460008D02*
X2357586Y-5450484D01*
X2357586Y-5450484D02*
X2357586Y-5469531D01*
X2481396Y-5650484D02*
X2462348Y-5640960D01*
X2462348Y-5640960D02*
X2452824Y-5621912D01*
X2452824Y-5621912D02*
X2452824Y-5450484D01*
X2586158Y-5650484D02*
X2567110Y-5640960D01*
X2567110Y-5640960D02*
X2557586Y-5621912D01*
X2557586Y-5621912D02*
X2557586Y-5450484D01*
X2814729Y-5650484D02*
X2814729Y-5450484D01*
X2814729Y-5450484D02*
X2881396Y-5593341D01*
X2881396Y-5593341D02*
X2948062Y-5450484D01*
X2948062Y-5450484D02*
X2948062Y-5650484D01*
X3129015Y-5650484D02*
X3129015Y-5545722D01*
X3129015Y-5545722D02*
X3119491Y-5526674D01*
X3119491Y-5526674D02*
X3100443Y-5517150D01*
X3100443Y-5517150D02*
X3062348Y-5517150D01*
X3062348Y-5517150D02*
X3043301Y-5526674D01*
X3129015Y-5640960D02*
X3109967Y-5650484D01*
X3109967Y-5650484D02*
X3062348Y-5650484D01*
X3062348Y-5650484D02*
X3043301Y-5640960D01*
X3043301Y-5640960D02*
X3033777Y-5621912D01*
X3033777Y-5621912D02*
X3033777Y-5602865D01*
X3033777Y-5602865D02*
X3043301Y-5583817D01*
X3043301Y-5583817D02*
X3062348Y-5574293D01*
X3062348Y-5574293D02*
X3109967Y-5574293D01*
X3109967Y-5574293D02*
X3129015Y-5564770D01*
X3224253Y-5517150D02*
X3224253Y-5717150D01*
X3224253Y-5526674D02*
X3243301Y-5517150D01*
X3243301Y-5517150D02*
X3281396Y-5517150D01*
X3281396Y-5517150D02*
X3300443Y-5526674D01*
X3300443Y-5526674D02*
X3309967Y-5536198D01*
X3309967Y-5536198D02*
X3319491Y-5555246D01*
X3319491Y-5555246D02*
X3319491Y-5612388D01*
X3319491Y-5612388D02*
X3309967Y-5631436D01*
X3309967Y-5631436D02*
X3300443Y-5640960D01*
X3300443Y-5640960D02*
X3281396Y-5650484D01*
X3281396Y-5650484D02*
X3243301Y-5650484D01*
X3243301Y-5650484D02*
X3224253Y-5640960D01*
X3405205Y-5631436D02*
X3414729Y-5640960D01*
X3414729Y-5640960D02*
X3405205Y-5650484D01*
X3405205Y-5650484D02*
X3395682Y-5640960D01*
X3395682Y-5640960D02*
X3405205Y-5631436D01*
X3405205Y-5631436D02*
X3405205Y-5650484D01*
X3405205Y-5526674D02*
X3414729Y-5536198D01*
X3414729Y-5536198D02*
X3405205Y-5545722D01*
X3405205Y-5545722D02*
X3395682Y-5536198D01*
X3395682Y-5536198D02*
X3405205Y-5526674D01*
X3405205Y-5526674D02*
X3405205Y-5545722D01*
D12*
X1703000Y-5944000D02*
X1773000Y-6014000D01*
X1773000Y-5944000D02*
X1703000Y-6014000D01*
D11*
X2071872Y-5870484D02*
X2090920Y-5870484D01*
X2090920Y-5870484D02*
X2109967Y-5880008D01*
X2109967Y-5880008D02*
X2119491Y-5889531D01*
X2119491Y-5889531D02*
X2129015Y-5908579D01*
X2129015Y-5908579D02*
X2138539Y-5946674D01*
X2138539Y-5946674D02*
X2138539Y-5994293D01*
X2138539Y-5994293D02*
X2129015Y-6032388D01*
X2129015Y-6032388D02*
X2119491Y-6051436D01*
X2119491Y-6051436D02*
X2109967Y-6060960D01*
X2109967Y-6060960D02*
X2090920Y-6070484D01*
X2090920Y-6070484D02*
X2071872Y-6070484D01*
X2071872Y-6070484D02*
X2052824Y-6060960D01*
X2052824Y-6060960D02*
X2043301Y-6051436D01*
X2043301Y-6051436D02*
X2033777Y-6032388D01*
X2033777Y-6032388D02*
X2024253Y-5994293D01*
X2024253Y-5994293D02*
X2024253Y-5946674D01*
X2024253Y-5946674D02*
X2033777Y-5908579D01*
X2033777Y-5908579D02*
X2043301Y-5889531D01*
X2043301Y-5889531D02*
X2052824Y-5880008D01*
X2052824Y-5880008D02*
X2071872Y-5870484D01*
X2224253Y-6051436D02*
X2233777Y-6060960D01*
X2233777Y-6060960D02*
X2224253Y-6070484D01*
X2224253Y-6070484D02*
X2214729Y-6060960D01*
X2214729Y-6060960D02*
X2224253Y-6051436D01*
X2224253Y-6051436D02*
X2224253Y-6070484D01*
X2300444Y-5870484D02*
X2433777Y-5870484D01*
X2433777Y-5870484D02*
X2348063Y-6070484D01*
X2548063Y-5870484D02*
X2567110Y-5870484D01*
X2567110Y-5870484D02*
X2586158Y-5880008D01*
X2586158Y-5880008D02*
X2595682Y-5889531D01*
X2595682Y-5889531D02*
X2605205Y-5908579D01*
X2605205Y-5908579D02*
X2614729Y-5946674D01*
X2614729Y-5946674D02*
X2614729Y-5994293D01*
X2614729Y-5994293D02*
X2605205Y-6032388D01*
X2605205Y-6032388D02*
X2595682Y-6051436D01*
X2595682Y-6051436D02*
X2586158Y-6060960D01*
X2586158Y-6060960D02*
X2567110Y-6070484D01*
X2567110Y-6070484D02*
X2548063Y-6070484D01*
X2548063Y-6070484D02*
X2529015Y-6060960D01*
X2529015Y-6060960D02*
X2519491Y-6051436D01*
X2519491Y-6051436D02*
X2509967Y-6032388D01*
X2509967Y-6032388D02*
X2500444Y-5994293D01*
X2500444Y-5994293D02*
X2500444Y-5946674D01*
X2500444Y-5946674D02*
X2509967Y-5908579D01*
X2509967Y-5908579D02*
X2519491Y-5889531D01*
X2519491Y-5889531D02*
X2529015Y-5880008D01*
X2529015Y-5880008D02*
X2548063Y-5870484D01*
X2738539Y-5870484D02*
X2757586Y-5870484D01*
X2757586Y-5870484D02*
X2776634Y-5880008D01*
X2776634Y-5880008D02*
X2786158Y-5889531D01*
X2786158Y-5889531D02*
X2795682Y-5908579D01*
X2795682Y-5908579D02*
X2805205Y-5946674D01*
X2805205Y-5946674D02*
X2805205Y-5994293D01*
X2805205Y-5994293D02*
X2795682Y-6032388D01*
X2795682Y-6032388D02*
X2786158Y-6051436D01*
X2786158Y-6051436D02*
X2776634Y-6060960D01*
X2776634Y-6060960D02*
X2757586Y-6070484D01*
X2757586Y-6070484D02*
X2738539Y-6070484D01*
X2738539Y-6070484D02*
X2719491Y-6060960D01*
X2719491Y-6060960D02*
X2709967Y-6051436D01*
X2709967Y-6051436D02*
X2700444Y-6032388D01*
X2700444Y-6032388D02*
X2690920Y-5994293D01*
X2690920Y-5994293D02*
X2690920Y-5946674D01*
X2690920Y-5946674D02*
X2700444Y-5908579D01*
X2700444Y-5908579D02*
X2709967Y-5889531D01*
X2709967Y-5889531D02*
X2719491Y-5880008D01*
X2719491Y-5880008D02*
X2738539Y-5870484D01*
X2890920Y-6070484D02*
X2890920Y-5937150D01*
X2890920Y-5956198D02*
X2900443Y-5946674D01*
X2900443Y-5946674D02*
X2919491Y-5937150D01*
X2919491Y-5937150D02*
X2948063Y-5937150D01*
X2948063Y-5937150D02*
X2967110Y-5946674D01*
X2967110Y-5946674D02*
X2976634Y-5965722D01*
X2976634Y-5965722D02*
X2976634Y-6070484D01*
X2976634Y-5965722D02*
X2986158Y-5946674D01*
X2986158Y-5946674D02*
X3005205Y-5937150D01*
X3005205Y-5937150D02*
X3033777Y-5937150D01*
X3033777Y-5937150D02*
X3052824Y-5946674D01*
X3052824Y-5946674D02*
X3062348Y-5965722D01*
X3062348Y-5965722D02*
X3062348Y-6070484D01*
X3157586Y-6070484D02*
X3157586Y-5937150D01*
X3157586Y-5956198D02*
X3167110Y-5946674D01*
X3167110Y-5946674D02*
X3186158Y-5937150D01*
X3186158Y-5937150D02*
X3214729Y-5937150D01*
X3214729Y-5937150D02*
X3233777Y-5946674D01*
X3233777Y-5946674D02*
X3243301Y-5965722D01*
X3243301Y-5965722D02*
X3243301Y-6070484D01*
X3243301Y-5965722D02*
X3252824Y-5946674D01*
X3252824Y-5946674D02*
X3271872Y-5937150D01*
X3271872Y-5937150D02*
X3300443Y-5937150D01*
X3300443Y-5937150D02*
X3319491Y-5946674D01*
X3319491Y-5946674D02*
X3329015Y-5965722D01*
X3329015Y-5965722D02*
X3329015Y-6070484D01*
X3719491Y-5860960D02*
X3548063Y-6118103D01*
X3976634Y-5870484D02*
X3995682Y-5870484D01*
X3995682Y-5870484D02*
X4014729Y-5880008D01*
X4014729Y-5880008D02*
X4024253Y-5889531D01*
X4024253Y-5889531D02*
X4033777Y-5908579D01*
X4033777Y-5908579D02*
X4043301Y-5946674D01*
X4043301Y-5946674D02*
X4043301Y-5994293D01*
X4043301Y-5994293D02*
X4033777Y-6032388D01*
X4033777Y-6032388D02*
X4024253Y-6051436D01*
X4024253Y-6051436D02*
X4014729Y-6060960D01*
X4014729Y-6060960D02*
X3995682Y-6070484D01*
X3995682Y-6070484D02*
X3976634Y-6070484D01*
X3976634Y-6070484D02*
X3957586Y-6060960D01*
X3957586Y-6060960D02*
X3948063Y-6051436D01*
X3948063Y-6051436D02*
X3938539Y-6032388D01*
X3938539Y-6032388D02*
X3929015Y-5994293D01*
X3929015Y-5994293D02*
X3929015Y-5946674D01*
X3929015Y-5946674D02*
X3938539Y-5908579D01*
X3938539Y-5908579D02*
X3948063Y-5889531D01*
X3948063Y-5889531D02*
X3957586Y-5880008D01*
X3957586Y-5880008D02*
X3976634Y-5870484D01*
X4129015Y-6051436D02*
X4138539Y-6060960D01*
X4138539Y-6060960D02*
X4129015Y-6070484D01*
X4129015Y-6070484D02*
X4119491Y-6060960D01*
X4119491Y-6060960D02*
X4129015Y-6051436D01*
X4129015Y-6051436D02*
X4129015Y-6070484D01*
X4262348Y-5870484D02*
X4281396Y-5870484D01*
X4281396Y-5870484D02*
X4300444Y-5880008D01*
X4300444Y-5880008D02*
X4309968Y-5889531D01*
X4309968Y-5889531D02*
X4319491Y-5908579D01*
X4319491Y-5908579D02*
X4329015Y-5946674D01*
X4329015Y-5946674D02*
X4329015Y-5994293D01*
X4329015Y-5994293D02*
X4319491Y-6032388D01*
X4319491Y-6032388D02*
X4309968Y-6051436D01*
X4309968Y-6051436D02*
X4300444Y-6060960D01*
X4300444Y-6060960D02*
X4281396Y-6070484D01*
X4281396Y-6070484D02*
X4262348Y-6070484D01*
X4262348Y-6070484D02*
X4243301Y-6060960D01*
X4243301Y-6060960D02*
X4233777Y-6051436D01*
X4233777Y-6051436D02*
X4224253Y-6032388D01*
X4224253Y-6032388D02*
X4214729Y-5994293D01*
X4214729Y-5994293D02*
X4214729Y-5946674D01*
X4214729Y-5946674D02*
X4224253Y-5908579D01*
X4224253Y-5908579D02*
X4233777Y-5889531D01*
X4233777Y-5889531D02*
X4243301Y-5880008D01*
X4243301Y-5880008D02*
X4262348Y-5870484D01*
X4405206Y-5889531D02*
X4414729Y-5880008D01*
X4414729Y-5880008D02*
X4433777Y-5870484D01*
X4433777Y-5870484D02*
X4481396Y-5870484D01*
X4481396Y-5870484D02*
X4500444Y-5880008D01*
X4500444Y-5880008D02*
X4509968Y-5889531D01*
X4509968Y-5889531D02*
X4519491Y-5908579D01*
X4519491Y-5908579D02*
X4519491Y-5927627D01*
X4519491Y-5927627D02*
X4509968Y-5956198D01*
X4509968Y-5956198D02*
X4395682Y-6070484D01*
X4395682Y-6070484D02*
X4519491Y-6070484D01*
X4586158Y-5870484D02*
X4719491Y-5870484D01*
X4719491Y-5870484D02*
X4633777Y-6070484D01*
X4881396Y-5870484D02*
X4843301Y-5870484D01*
X4843301Y-5870484D02*
X4824253Y-5880008D01*
X4824253Y-5880008D02*
X4814729Y-5889531D01*
X4814729Y-5889531D02*
X4795682Y-5918103D01*
X4795682Y-5918103D02*
X4786158Y-5956198D01*
X4786158Y-5956198D02*
X4786158Y-6032388D01*
X4786158Y-6032388D02*
X4795682Y-6051436D01*
X4795682Y-6051436D02*
X4805206Y-6060960D01*
X4805206Y-6060960D02*
X4824253Y-6070484D01*
X4824253Y-6070484D02*
X4862349Y-6070484D01*
X4862349Y-6070484D02*
X4881396Y-6060960D01*
X4881396Y-6060960D02*
X4890920Y-6051436D01*
X4890920Y-6051436D02*
X4900444Y-6032388D01*
X4900444Y-6032388D02*
X4900444Y-5984769D01*
X4900444Y-5984769D02*
X4890920Y-5965722D01*
X4890920Y-5965722D02*
X4881396Y-5956198D01*
X4881396Y-5956198D02*
X4862349Y-5946674D01*
X4862349Y-5946674D02*
X4824253Y-5946674D01*
X4824253Y-5946674D02*
X4805206Y-5956198D01*
X4805206Y-5956198D02*
X4795682Y-5965722D01*
X4795682Y-5965722D02*
X4786158Y-5984769D01*
X4976634Y-5870484D02*
X4976634Y-5908579D01*
X5052825Y-5870484D02*
X5052825Y-5908579D01*
X5348063Y-6146674D02*
X5338539Y-6137150D01*
X5338539Y-6137150D02*
X5319491Y-6108579D01*
X5319491Y-6108579D02*
X5309968Y-6089531D01*
X5309968Y-6089531D02*
X5300444Y-6060960D01*
X5300444Y-6060960D02*
X5290920Y-6013341D01*
X5290920Y-6013341D02*
X5290920Y-5975246D01*
X5290920Y-5975246D02*
X5300444Y-5927627D01*
X5300444Y-5927627D02*
X5309968Y-5899055D01*
X5309968Y-5899055D02*
X5319491Y-5880008D01*
X5319491Y-5880008D02*
X5338539Y-5851436D01*
X5338539Y-5851436D02*
X5348063Y-5841912D01*
X5529015Y-6070484D02*
X5414730Y-6070484D01*
X5471872Y-6070484D02*
X5471872Y-5870484D01*
X5471872Y-5870484D02*
X5452825Y-5899055D01*
X5452825Y-5899055D02*
X5433777Y-5918103D01*
X5433777Y-5918103D02*
X5414730Y-5927627D01*
X5700444Y-5937150D02*
X5700444Y-6070484D01*
X5652825Y-5860960D02*
X5605206Y-6003817D01*
X5605206Y-6003817D02*
X5729015Y-6003817D01*
X5957587Y-6070484D02*
X5957587Y-5870484D01*
X6043301Y-6070484D02*
X6043301Y-5965722D01*
X6043301Y-5965722D02*
X6033777Y-5946674D01*
X6033777Y-5946674D02*
X6014730Y-5937150D01*
X6014730Y-5937150D02*
X5986158Y-5937150D01*
X5986158Y-5937150D02*
X5967110Y-5946674D01*
X5967110Y-5946674D02*
X5957587Y-5956198D01*
X6167110Y-6070484D02*
X6148063Y-6060960D01*
X6148063Y-6060960D02*
X6138539Y-6051436D01*
X6138539Y-6051436D02*
X6129015Y-6032388D01*
X6129015Y-6032388D02*
X6129015Y-5975246D01*
X6129015Y-5975246D02*
X6138539Y-5956198D01*
X6138539Y-5956198D02*
X6148063Y-5946674D01*
X6148063Y-5946674D02*
X6167110Y-5937150D01*
X6167110Y-5937150D02*
X6195682Y-5937150D01*
X6195682Y-5937150D02*
X6214730Y-5946674D01*
X6214730Y-5946674D02*
X6224253Y-5956198D01*
X6224253Y-5956198D02*
X6233777Y-5975246D01*
X6233777Y-5975246D02*
X6233777Y-6032388D01*
X6233777Y-6032388D02*
X6224253Y-6051436D01*
X6224253Y-6051436D02*
X6214730Y-6060960D01*
X6214730Y-6060960D02*
X6195682Y-6070484D01*
X6195682Y-6070484D02*
X6167110Y-6070484D01*
X6348063Y-6070484D02*
X6329015Y-6060960D01*
X6329015Y-6060960D02*
X6319491Y-6041912D01*
X6319491Y-6041912D02*
X6319491Y-5870484D01*
X6500444Y-6060960D02*
X6481396Y-6070484D01*
X6481396Y-6070484D02*
X6443301Y-6070484D01*
X6443301Y-6070484D02*
X6424253Y-6060960D01*
X6424253Y-6060960D02*
X6414730Y-6041912D01*
X6414730Y-6041912D02*
X6414730Y-5965722D01*
X6414730Y-5965722D02*
X6424253Y-5946674D01*
X6424253Y-5946674D02*
X6443301Y-5937150D01*
X6443301Y-5937150D02*
X6481396Y-5937150D01*
X6481396Y-5937150D02*
X6500444Y-5946674D01*
X6500444Y-5946674D02*
X6509968Y-5965722D01*
X6509968Y-5965722D02*
X6509968Y-5984769D01*
X6509968Y-5984769D02*
X6414730Y-6003817D01*
X6586158Y-6060960D02*
X6605206Y-6070484D01*
X6605206Y-6070484D02*
X6643301Y-6070484D01*
X6643301Y-6070484D02*
X6662349Y-6060960D01*
X6662349Y-6060960D02*
X6671872Y-6041912D01*
X6671872Y-6041912D02*
X6671872Y-6032388D01*
X6671872Y-6032388D02*
X6662349Y-6013341D01*
X6662349Y-6013341D02*
X6643301Y-6003817D01*
X6643301Y-6003817D02*
X6614730Y-6003817D01*
X6614730Y-6003817D02*
X6595682Y-5994293D01*
X6595682Y-5994293D02*
X6586158Y-5975246D01*
X6586158Y-5975246D02*
X6586158Y-5965722D01*
X6586158Y-5965722D02*
X6595682Y-5946674D01*
X6595682Y-5946674D02*
X6614730Y-5937150D01*
X6614730Y-5937150D02*
X6643301Y-5937150D01*
X6643301Y-5937150D02*
X6662349Y-5946674D01*
X6738539Y-6146674D02*
X6748063Y-6137150D01*
X6748063Y-6137150D02*
X6767111Y-6108579D01*
X6767111Y-6108579D02*
X6776634Y-6089531D01*
X6776634Y-6089531D02*
X6786158Y-6060960D01*
X6786158Y-6060960D02*
X6795682Y-6013341D01*
X6795682Y-6013341D02*
X6795682Y-5975246D01*
X6795682Y-5975246D02*
X6786158Y-5927627D01*
X6786158Y-5927627D02*
X6776634Y-5899055D01*
X6776634Y-5899055D02*
X6767111Y-5880008D01*
X6767111Y-5880008D02*
X6748063Y-5851436D01*
X6748063Y-5851436D02*
X6738539Y-5841912D01*
D13*
X1773000Y-6243000D02*
G75*
G03*
X1773000Y-6243000I-40000J0D01*
G01*
D11*
X2071872Y-6134484D02*
X2090920Y-6134484D01*
X2090920Y-6134484D02*
X2109967Y-6144008D01*
X2109967Y-6144008D02*
X2119491Y-6153531D01*
X2119491Y-6153531D02*
X2129015Y-6172579D01*
X2129015Y-6172579D02*
X2138539Y-6210674D01*
X2138539Y-6210674D02*
X2138539Y-6258293D01*
X2138539Y-6258293D02*
X2129015Y-6296388D01*
X2129015Y-6296388D02*
X2119491Y-6315436D01*
X2119491Y-6315436D02*
X2109967Y-6324960D01*
X2109967Y-6324960D02*
X2090920Y-6334484D01*
X2090920Y-6334484D02*
X2071872Y-6334484D01*
X2071872Y-6334484D02*
X2052824Y-6324960D01*
X2052824Y-6324960D02*
X2043301Y-6315436D01*
X2043301Y-6315436D02*
X2033777Y-6296388D01*
X2033777Y-6296388D02*
X2024253Y-6258293D01*
X2024253Y-6258293D02*
X2024253Y-6210674D01*
X2024253Y-6210674D02*
X2033777Y-6172579D01*
X2033777Y-6172579D02*
X2043301Y-6153531D01*
X2043301Y-6153531D02*
X2052824Y-6144008D01*
X2052824Y-6144008D02*
X2071872Y-6134484D01*
X2224253Y-6315436D02*
X2233777Y-6324960D01*
X2233777Y-6324960D02*
X2224253Y-6334484D01*
X2224253Y-6334484D02*
X2214729Y-6324960D01*
X2214729Y-6324960D02*
X2224253Y-6315436D01*
X2224253Y-6315436D02*
X2224253Y-6334484D01*
X2348063Y-6220198D02*
X2329015Y-6210674D01*
X2329015Y-6210674D02*
X2319491Y-6201150D01*
X2319491Y-6201150D02*
X2309967Y-6182103D01*
X2309967Y-6182103D02*
X2309967Y-6172579D01*
X2309967Y-6172579D02*
X2319491Y-6153531D01*
X2319491Y-6153531D02*
X2329015Y-6144008D01*
X2329015Y-6144008D02*
X2348063Y-6134484D01*
X2348063Y-6134484D02*
X2386158Y-6134484D01*
X2386158Y-6134484D02*
X2405205Y-6144008D01*
X2405205Y-6144008D02*
X2414729Y-6153531D01*
X2414729Y-6153531D02*
X2424253Y-6172579D01*
X2424253Y-6172579D02*
X2424253Y-6182103D01*
X2424253Y-6182103D02*
X2414729Y-6201150D01*
X2414729Y-6201150D02*
X2405205Y-6210674D01*
X2405205Y-6210674D02*
X2386158Y-6220198D01*
X2386158Y-6220198D02*
X2348063Y-6220198D01*
X2348063Y-6220198D02*
X2329015Y-6229722D01*
X2329015Y-6229722D02*
X2319491Y-6239246D01*
X2319491Y-6239246D02*
X2309967Y-6258293D01*
X2309967Y-6258293D02*
X2309967Y-6296388D01*
X2309967Y-6296388D02*
X2319491Y-6315436D01*
X2319491Y-6315436D02*
X2329015Y-6324960D01*
X2329015Y-6324960D02*
X2348063Y-6334484D01*
X2348063Y-6334484D02*
X2386158Y-6334484D01*
X2386158Y-6334484D02*
X2405205Y-6324960D01*
X2405205Y-6324960D02*
X2414729Y-6315436D01*
X2414729Y-6315436D02*
X2424253Y-6296388D01*
X2424253Y-6296388D02*
X2424253Y-6258293D01*
X2424253Y-6258293D02*
X2414729Y-6239246D01*
X2414729Y-6239246D02*
X2405205Y-6229722D01*
X2405205Y-6229722D02*
X2386158Y-6220198D01*
X2548063Y-6134484D02*
X2567110Y-6134484D01*
X2567110Y-6134484D02*
X2586158Y-6144008D01*
X2586158Y-6144008D02*
X2595682Y-6153531D01*
X2595682Y-6153531D02*
X2605205Y-6172579D01*
X2605205Y-6172579D02*
X2614729Y-6210674D01*
X2614729Y-6210674D02*
X2614729Y-6258293D01*
X2614729Y-6258293D02*
X2605205Y-6296388D01*
X2605205Y-6296388D02*
X2595682Y-6315436D01*
X2595682Y-6315436D02*
X2586158Y-6324960D01*
X2586158Y-6324960D02*
X2567110Y-6334484D01*
X2567110Y-6334484D02*
X2548063Y-6334484D01*
X2548063Y-6334484D02*
X2529015Y-6324960D01*
X2529015Y-6324960D02*
X2519491Y-6315436D01*
X2519491Y-6315436D02*
X2509967Y-6296388D01*
X2509967Y-6296388D02*
X2500444Y-6258293D01*
X2500444Y-6258293D02*
X2500444Y-6210674D01*
X2500444Y-6210674D02*
X2509967Y-6172579D01*
X2509967Y-6172579D02*
X2519491Y-6153531D01*
X2519491Y-6153531D02*
X2529015Y-6144008D01*
X2529015Y-6144008D02*
X2548063Y-6134484D01*
X2738539Y-6134484D02*
X2757586Y-6134484D01*
X2757586Y-6134484D02*
X2776634Y-6144008D01*
X2776634Y-6144008D02*
X2786158Y-6153531D01*
X2786158Y-6153531D02*
X2795682Y-6172579D01*
X2795682Y-6172579D02*
X2805205Y-6210674D01*
X2805205Y-6210674D02*
X2805205Y-6258293D01*
X2805205Y-6258293D02*
X2795682Y-6296388D01*
X2795682Y-6296388D02*
X2786158Y-6315436D01*
X2786158Y-6315436D02*
X2776634Y-6324960D01*
X2776634Y-6324960D02*
X2757586Y-6334484D01*
X2757586Y-6334484D02*
X2738539Y-6334484D01*
X2738539Y-6334484D02*
X2719491Y-6324960D01*
X2719491Y-6324960D02*
X2709967Y-6315436D01*
X2709967Y-6315436D02*
X2700444Y-6296388D01*
X2700444Y-6296388D02*
X2690920Y-6258293D01*
X2690920Y-6258293D02*
X2690920Y-6210674D01*
X2690920Y-6210674D02*
X2700444Y-6172579D01*
X2700444Y-6172579D02*
X2709967Y-6153531D01*
X2709967Y-6153531D02*
X2719491Y-6144008D01*
X2719491Y-6144008D02*
X2738539Y-6134484D01*
X2890920Y-6334484D02*
X2890920Y-6201150D01*
X2890920Y-6220198D02*
X2900443Y-6210674D01*
X2900443Y-6210674D02*
X2919491Y-6201150D01*
X2919491Y-6201150D02*
X2948063Y-6201150D01*
X2948063Y-6201150D02*
X2967110Y-6210674D01*
X2967110Y-6210674D02*
X2976634Y-6229722D01*
X2976634Y-6229722D02*
X2976634Y-6334484D01*
X2976634Y-6229722D02*
X2986158Y-6210674D01*
X2986158Y-6210674D02*
X3005205Y-6201150D01*
X3005205Y-6201150D02*
X3033777Y-6201150D01*
X3033777Y-6201150D02*
X3052824Y-6210674D01*
X3052824Y-6210674D02*
X3062348Y-6229722D01*
X3062348Y-6229722D02*
X3062348Y-6334484D01*
X3157586Y-6334484D02*
X3157586Y-6201150D01*
X3157586Y-6220198D02*
X3167110Y-6210674D01*
X3167110Y-6210674D02*
X3186158Y-6201150D01*
X3186158Y-6201150D02*
X3214729Y-6201150D01*
X3214729Y-6201150D02*
X3233777Y-6210674D01*
X3233777Y-6210674D02*
X3243301Y-6229722D01*
X3243301Y-6229722D02*
X3243301Y-6334484D01*
X3243301Y-6229722D02*
X3252824Y-6210674D01*
X3252824Y-6210674D02*
X3271872Y-6201150D01*
X3271872Y-6201150D02*
X3300443Y-6201150D01*
X3300443Y-6201150D02*
X3319491Y-6210674D01*
X3319491Y-6210674D02*
X3329015Y-6229722D01*
X3329015Y-6229722D02*
X3329015Y-6334484D01*
X3719491Y-6124960D02*
X3548063Y-6382103D01*
X3976634Y-6134484D02*
X3995682Y-6134484D01*
X3995682Y-6134484D02*
X4014729Y-6144008D01*
X4014729Y-6144008D02*
X4024253Y-6153531D01*
X4024253Y-6153531D02*
X4033777Y-6172579D01*
X4033777Y-6172579D02*
X4043301Y-6210674D01*
X4043301Y-6210674D02*
X4043301Y-6258293D01*
X4043301Y-6258293D02*
X4033777Y-6296388D01*
X4033777Y-6296388D02*
X4024253Y-6315436D01*
X4024253Y-6315436D02*
X4014729Y-6324960D01*
X4014729Y-6324960D02*
X3995682Y-6334484D01*
X3995682Y-6334484D02*
X3976634Y-6334484D01*
X3976634Y-6334484D02*
X3957586Y-6324960D01*
X3957586Y-6324960D02*
X3948063Y-6315436D01*
X3948063Y-6315436D02*
X3938539Y-6296388D01*
X3938539Y-6296388D02*
X3929015Y-6258293D01*
X3929015Y-6258293D02*
X3929015Y-6210674D01*
X3929015Y-6210674D02*
X3938539Y-6172579D01*
X3938539Y-6172579D02*
X3948063Y-6153531D01*
X3948063Y-6153531D02*
X3957586Y-6144008D01*
X3957586Y-6144008D02*
X3976634Y-6134484D01*
X4129015Y-6315436D02*
X4138539Y-6324960D01*
X4138539Y-6324960D02*
X4129015Y-6334484D01*
X4129015Y-6334484D02*
X4119491Y-6324960D01*
X4119491Y-6324960D02*
X4129015Y-6315436D01*
X4129015Y-6315436D02*
X4129015Y-6334484D01*
X4262348Y-6134484D02*
X4281396Y-6134484D01*
X4281396Y-6134484D02*
X4300444Y-6144008D01*
X4300444Y-6144008D02*
X4309968Y-6153531D01*
X4309968Y-6153531D02*
X4319491Y-6172579D01*
X4319491Y-6172579D02*
X4329015Y-6210674D01*
X4329015Y-6210674D02*
X4329015Y-6258293D01*
X4329015Y-6258293D02*
X4319491Y-6296388D01*
X4319491Y-6296388D02*
X4309968Y-6315436D01*
X4309968Y-6315436D02*
X4300444Y-6324960D01*
X4300444Y-6324960D02*
X4281396Y-6334484D01*
X4281396Y-6334484D02*
X4262348Y-6334484D01*
X4262348Y-6334484D02*
X4243301Y-6324960D01*
X4243301Y-6324960D02*
X4233777Y-6315436D01*
X4233777Y-6315436D02*
X4224253Y-6296388D01*
X4224253Y-6296388D02*
X4214729Y-6258293D01*
X4214729Y-6258293D02*
X4214729Y-6210674D01*
X4214729Y-6210674D02*
X4224253Y-6172579D01*
X4224253Y-6172579D02*
X4233777Y-6153531D01*
X4233777Y-6153531D02*
X4243301Y-6144008D01*
X4243301Y-6144008D02*
X4262348Y-6134484D01*
X4395682Y-6134484D02*
X4519491Y-6134484D01*
X4519491Y-6134484D02*
X4452825Y-6210674D01*
X4452825Y-6210674D02*
X4481396Y-6210674D01*
X4481396Y-6210674D02*
X4500444Y-6220198D01*
X4500444Y-6220198D02*
X4509968Y-6229722D01*
X4509968Y-6229722D02*
X4519491Y-6248769D01*
X4519491Y-6248769D02*
X4519491Y-6296388D01*
X4519491Y-6296388D02*
X4509968Y-6315436D01*
X4509968Y-6315436D02*
X4500444Y-6324960D01*
X4500444Y-6324960D02*
X4481396Y-6334484D01*
X4481396Y-6334484D02*
X4424253Y-6334484D01*
X4424253Y-6334484D02*
X4405206Y-6324960D01*
X4405206Y-6324960D02*
X4395682Y-6315436D01*
X4709968Y-6334484D02*
X4595682Y-6334484D01*
X4652825Y-6334484D02*
X4652825Y-6134484D01*
X4652825Y-6134484D02*
X4633777Y-6163055D01*
X4633777Y-6163055D02*
X4614729Y-6182103D01*
X4614729Y-6182103D02*
X4595682Y-6191627D01*
X4890920Y-6134484D02*
X4795682Y-6134484D01*
X4795682Y-6134484D02*
X4786158Y-6229722D01*
X4786158Y-6229722D02*
X4795682Y-6220198D01*
X4795682Y-6220198D02*
X4814729Y-6210674D01*
X4814729Y-6210674D02*
X4862349Y-6210674D01*
X4862349Y-6210674D02*
X4881396Y-6220198D01*
X4881396Y-6220198D02*
X4890920Y-6229722D01*
X4890920Y-6229722D02*
X4900444Y-6248769D01*
X4900444Y-6248769D02*
X4900444Y-6296388D01*
X4900444Y-6296388D02*
X4890920Y-6315436D01*
X4890920Y-6315436D02*
X4881396Y-6324960D01*
X4881396Y-6324960D02*
X4862349Y-6334484D01*
X4862349Y-6334484D02*
X4814729Y-6334484D01*
X4814729Y-6334484D02*
X4795682Y-6324960D01*
X4795682Y-6324960D02*
X4786158Y-6315436D01*
X4976634Y-6134484D02*
X4976634Y-6172579D01*
X5052825Y-6134484D02*
X5052825Y-6172579D01*
X5348063Y-6410674D02*
X5338539Y-6401150D01*
X5338539Y-6401150D02*
X5319491Y-6372579D01*
X5319491Y-6372579D02*
X5309968Y-6353531D01*
X5309968Y-6353531D02*
X5300444Y-6324960D01*
X5300444Y-6324960D02*
X5290920Y-6277341D01*
X5290920Y-6277341D02*
X5290920Y-6239246D01*
X5290920Y-6239246D02*
X5300444Y-6191627D01*
X5300444Y-6191627D02*
X5309968Y-6163055D01*
X5309968Y-6163055D02*
X5319491Y-6144008D01*
X5319491Y-6144008D02*
X5338539Y-6115436D01*
X5338539Y-6115436D02*
X5348063Y-6105912D01*
X5529015Y-6334484D02*
X5414730Y-6334484D01*
X5471872Y-6334484D02*
X5471872Y-6134484D01*
X5471872Y-6134484D02*
X5452825Y-6163055D01*
X5452825Y-6163055D02*
X5433777Y-6182103D01*
X5433777Y-6182103D02*
X5414730Y-6191627D01*
X5700444Y-6134484D02*
X5662348Y-6134484D01*
X5662348Y-6134484D02*
X5643301Y-6144008D01*
X5643301Y-6144008D02*
X5633777Y-6153531D01*
X5633777Y-6153531D02*
X5614729Y-6182103D01*
X5614729Y-6182103D02*
X5605206Y-6220198D01*
X5605206Y-6220198D02*
X5605206Y-6296388D01*
X5605206Y-6296388D02*
X5614729Y-6315436D01*
X5614729Y-6315436D02*
X5624253Y-6324960D01*
X5624253Y-6324960D02*
X5643301Y-6334484D01*
X5643301Y-6334484D02*
X5681396Y-6334484D01*
X5681396Y-6334484D02*
X5700444Y-6324960D01*
X5700444Y-6324960D02*
X5709968Y-6315436D01*
X5709968Y-6315436D02*
X5719491Y-6296388D01*
X5719491Y-6296388D02*
X5719491Y-6248769D01*
X5719491Y-6248769D02*
X5709968Y-6229722D01*
X5709968Y-6229722D02*
X5700444Y-6220198D01*
X5700444Y-6220198D02*
X5681396Y-6210674D01*
X5681396Y-6210674D02*
X5643301Y-6210674D01*
X5643301Y-6210674D02*
X5624253Y-6220198D01*
X5624253Y-6220198D02*
X5614729Y-6229722D01*
X5614729Y-6229722D02*
X5605206Y-6248769D01*
X5957587Y-6334484D02*
X5957587Y-6134484D01*
X6043301Y-6334484D02*
X6043301Y-6229722D01*
X6043301Y-6229722D02*
X6033777Y-6210674D01*
X6033777Y-6210674D02*
X6014730Y-6201150D01*
X6014730Y-6201150D02*
X5986158Y-6201150D01*
X5986158Y-6201150D02*
X5967110Y-6210674D01*
X5967110Y-6210674D02*
X5957587Y-6220198D01*
X6167110Y-6334484D02*
X6148063Y-6324960D01*
X6148063Y-6324960D02*
X6138539Y-6315436D01*
X6138539Y-6315436D02*
X6129015Y-6296388D01*
X6129015Y-6296388D02*
X6129015Y-6239246D01*
X6129015Y-6239246D02*
X6138539Y-6220198D01*
X6138539Y-6220198D02*
X6148063Y-6210674D01*
X6148063Y-6210674D02*
X6167110Y-6201150D01*
X6167110Y-6201150D02*
X6195682Y-6201150D01*
X6195682Y-6201150D02*
X6214730Y-6210674D01*
X6214730Y-6210674D02*
X6224253Y-6220198D01*
X6224253Y-6220198D02*
X6233777Y-6239246D01*
X6233777Y-6239246D02*
X6233777Y-6296388D01*
X6233777Y-6296388D02*
X6224253Y-6315436D01*
X6224253Y-6315436D02*
X6214730Y-6324960D01*
X6214730Y-6324960D02*
X6195682Y-6334484D01*
X6195682Y-6334484D02*
X6167110Y-6334484D01*
X6348063Y-6334484D02*
X6329015Y-6324960D01*
X6329015Y-6324960D02*
X6319491Y-6305912D01*
X6319491Y-6305912D02*
X6319491Y-6134484D01*
X6500444Y-6324960D02*
X6481396Y-6334484D01*
X6481396Y-6334484D02*
X6443301Y-6334484D01*
X6443301Y-6334484D02*
X6424253Y-6324960D01*
X6424253Y-6324960D02*
X6414730Y-6305912D01*
X6414730Y-6305912D02*
X6414730Y-6229722D01*
X6414730Y-6229722D02*
X6424253Y-6210674D01*
X6424253Y-6210674D02*
X6443301Y-6201150D01*
X6443301Y-6201150D02*
X6481396Y-6201150D01*
X6481396Y-6201150D02*
X6500444Y-6210674D01*
X6500444Y-6210674D02*
X6509968Y-6229722D01*
X6509968Y-6229722D02*
X6509968Y-6248769D01*
X6509968Y-6248769D02*
X6414730Y-6267817D01*
X6586158Y-6324960D02*
X6605206Y-6334484D01*
X6605206Y-6334484D02*
X6643301Y-6334484D01*
X6643301Y-6334484D02*
X6662349Y-6324960D01*
X6662349Y-6324960D02*
X6671872Y-6305912D01*
X6671872Y-6305912D02*
X6671872Y-6296388D01*
X6671872Y-6296388D02*
X6662349Y-6277341D01*
X6662349Y-6277341D02*
X6643301Y-6267817D01*
X6643301Y-6267817D02*
X6614730Y-6267817D01*
X6614730Y-6267817D02*
X6595682Y-6258293D01*
X6595682Y-6258293D02*
X6586158Y-6239246D01*
X6586158Y-6239246D02*
X6586158Y-6229722D01*
X6586158Y-6229722D02*
X6595682Y-6210674D01*
X6595682Y-6210674D02*
X6614730Y-6201150D01*
X6614730Y-6201150D02*
X6643301Y-6201150D01*
X6643301Y-6201150D02*
X6662349Y-6210674D01*
X6738539Y-6410674D02*
X6748063Y-6401150D01*
X6748063Y-6401150D02*
X6767111Y-6372579D01*
X6767111Y-6372579D02*
X6776634Y-6353531D01*
X6776634Y-6353531D02*
X6786158Y-6324960D01*
X6786158Y-6324960D02*
X6795682Y-6277341D01*
X6795682Y-6277341D02*
X6795682Y-6239246D01*
X6795682Y-6239246D02*
X6786158Y-6191627D01*
X6786158Y-6191627D02*
X6776634Y-6163055D01*
X6776634Y-6163055D02*
X6767111Y-6144008D01*
X6767111Y-6144008D02*
X6748063Y-6115436D01*
X6748063Y-6115436D02*
X6738539Y-6105912D01*
D10*
X1723000Y-6457000D02*
X1723000Y-6557000D01*
X1673000Y-6507000D02*
X1773000Y-6507000D01*
D11*
X2138539Y-6598484D02*
X2024253Y-6598484D01*
X2081396Y-6598484D02*
X2081396Y-6398484D01*
X2081396Y-6398484D02*
X2062348Y-6427055D01*
X2062348Y-6427055D02*
X2043301Y-6446103D01*
X2043301Y-6446103D02*
X2024253Y-6455627D01*
X2224253Y-6579436D02*
X2233777Y-6588960D01*
X2233777Y-6588960D02*
X2224253Y-6598484D01*
X2224253Y-6598484D02*
X2214729Y-6588960D01*
X2214729Y-6588960D02*
X2224253Y-6579436D01*
X2224253Y-6579436D02*
X2224253Y-6598484D01*
X2357586Y-6398484D02*
X2376634Y-6398484D01*
X2376634Y-6398484D02*
X2395682Y-6408008D01*
X2395682Y-6408008D02*
X2405205Y-6417531D01*
X2405205Y-6417531D02*
X2414729Y-6436579D01*
X2414729Y-6436579D02*
X2424253Y-6474674D01*
X2424253Y-6474674D02*
X2424253Y-6522293D01*
X2424253Y-6522293D02*
X2414729Y-6560388D01*
X2414729Y-6560388D02*
X2405205Y-6579436D01*
X2405205Y-6579436D02*
X2395682Y-6588960D01*
X2395682Y-6588960D02*
X2376634Y-6598484D01*
X2376634Y-6598484D02*
X2357586Y-6598484D01*
X2357586Y-6598484D02*
X2338539Y-6588960D01*
X2338539Y-6588960D02*
X2329015Y-6579436D01*
X2329015Y-6579436D02*
X2319491Y-6560388D01*
X2319491Y-6560388D02*
X2309967Y-6522293D01*
X2309967Y-6522293D02*
X2309967Y-6474674D01*
X2309967Y-6474674D02*
X2319491Y-6436579D01*
X2319491Y-6436579D02*
X2329015Y-6417531D01*
X2329015Y-6417531D02*
X2338539Y-6408008D01*
X2338539Y-6408008D02*
X2357586Y-6398484D01*
X2548063Y-6398484D02*
X2567110Y-6398484D01*
X2567110Y-6398484D02*
X2586158Y-6408008D01*
X2586158Y-6408008D02*
X2595682Y-6417531D01*
X2595682Y-6417531D02*
X2605205Y-6436579D01*
X2605205Y-6436579D02*
X2614729Y-6474674D01*
X2614729Y-6474674D02*
X2614729Y-6522293D01*
X2614729Y-6522293D02*
X2605205Y-6560388D01*
X2605205Y-6560388D02*
X2595682Y-6579436D01*
X2595682Y-6579436D02*
X2586158Y-6588960D01*
X2586158Y-6588960D02*
X2567110Y-6598484D01*
X2567110Y-6598484D02*
X2548063Y-6598484D01*
X2548063Y-6598484D02*
X2529015Y-6588960D01*
X2529015Y-6588960D02*
X2519491Y-6579436D01*
X2519491Y-6579436D02*
X2509967Y-6560388D01*
X2509967Y-6560388D02*
X2500444Y-6522293D01*
X2500444Y-6522293D02*
X2500444Y-6474674D01*
X2500444Y-6474674D02*
X2509967Y-6436579D01*
X2509967Y-6436579D02*
X2519491Y-6417531D01*
X2519491Y-6417531D02*
X2529015Y-6408008D01*
X2529015Y-6408008D02*
X2548063Y-6398484D01*
X2738539Y-6398484D02*
X2757586Y-6398484D01*
X2757586Y-6398484D02*
X2776634Y-6408008D01*
X2776634Y-6408008D02*
X2786158Y-6417531D01*
X2786158Y-6417531D02*
X2795682Y-6436579D01*
X2795682Y-6436579D02*
X2805205Y-6474674D01*
X2805205Y-6474674D02*
X2805205Y-6522293D01*
X2805205Y-6522293D02*
X2795682Y-6560388D01*
X2795682Y-6560388D02*
X2786158Y-6579436D01*
X2786158Y-6579436D02*
X2776634Y-6588960D01*
X2776634Y-6588960D02*
X2757586Y-6598484D01*
X2757586Y-6598484D02*
X2738539Y-6598484D01*
X2738539Y-6598484D02*
X2719491Y-6588960D01*
X2719491Y-6588960D02*
X2709967Y-6579436D01*
X2709967Y-6579436D02*
X2700444Y-6560388D01*
X2700444Y-6560388D02*
X2690920Y-6522293D01*
X2690920Y-6522293D02*
X2690920Y-6474674D01*
X2690920Y-6474674D02*
X2700444Y-6436579D01*
X2700444Y-6436579D02*
X2709967Y-6417531D01*
X2709967Y-6417531D02*
X2719491Y-6408008D01*
X2719491Y-6408008D02*
X2738539Y-6398484D01*
X2890920Y-6598484D02*
X2890920Y-6465150D01*
X2890920Y-6484198D02*
X2900443Y-6474674D01*
X2900443Y-6474674D02*
X2919491Y-6465150D01*
X2919491Y-6465150D02*
X2948063Y-6465150D01*
X2948063Y-6465150D02*
X2967110Y-6474674D01*
X2967110Y-6474674D02*
X2976634Y-6493722D01*
X2976634Y-6493722D02*
X2976634Y-6598484D01*
X2976634Y-6493722D02*
X2986158Y-6474674D01*
X2986158Y-6474674D02*
X3005205Y-6465150D01*
X3005205Y-6465150D02*
X3033777Y-6465150D01*
X3033777Y-6465150D02*
X3052824Y-6474674D01*
X3052824Y-6474674D02*
X3062348Y-6493722D01*
X3062348Y-6493722D02*
X3062348Y-6598484D01*
X3157586Y-6598484D02*
X3157586Y-6465150D01*
X3157586Y-6484198D02*
X3167110Y-6474674D01*
X3167110Y-6474674D02*
X3186158Y-6465150D01*
X3186158Y-6465150D02*
X3214729Y-6465150D01*
X3214729Y-6465150D02*
X3233777Y-6474674D01*
X3233777Y-6474674D02*
X3243301Y-6493722D01*
X3243301Y-6493722D02*
X3243301Y-6598484D01*
X3243301Y-6493722D02*
X3252824Y-6474674D01*
X3252824Y-6474674D02*
X3271872Y-6465150D01*
X3271872Y-6465150D02*
X3300443Y-6465150D01*
X3300443Y-6465150D02*
X3319491Y-6474674D01*
X3319491Y-6474674D02*
X3329015Y-6493722D01*
X3329015Y-6493722D02*
X3329015Y-6598484D01*
X3719491Y-6388960D02*
X3548063Y-6646103D01*
X3976634Y-6398484D02*
X3995682Y-6398484D01*
X3995682Y-6398484D02*
X4014729Y-6408008D01*
X4014729Y-6408008D02*
X4024253Y-6417531D01*
X4024253Y-6417531D02*
X4033777Y-6436579D01*
X4033777Y-6436579D02*
X4043301Y-6474674D01*
X4043301Y-6474674D02*
X4043301Y-6522293D01*
X4043301Y-6522293D02*
X4033777Y-6560388D01*
X4033777Y-6560388D02*
X4024253Y-6579436D01*
X4024253Y-6579436D02*
X4014729Y-6588960D01*
X4014729Y-6588960D02*
X3995682Y-6598484D01*
X3995682Y-6598484D02*
X3976634Y-6598484D01*
X3976634Y-6598484D02*
X3957586Y-6588960D01*
X3957586Y-6588960D02*
X3948063Y-6579436D01*
X3948063Y-6579436D02*
X3938539Y-6560388D01*
X3938539Y-6560388D02*
X3929015Y-6522293D01*
X3929015Y-6522293D02*
X3929015Y-6474674D01*
X3929015Y-6474674D02*
X3938539Y-6436579D01*
X3938539Y-6436579D02*
X3948063Y-6417531D01*
X3948063Y-6417531D02*
X3957586Y-6408008D01*
X3957586Y-6408008D02*
X3976634Y-6398484D01*
X4129015Y-6579436D02*
X4138539Y-6588960D01*
X4138539Y-6588960D02*
X4129015Y-6598484D01*
X4129015Y-6598484D02*
X4119491Y-6588960D01*
X4119491Y-6588960D02*
X4129015Y-6579436D01*
X4129015Y-6579436D02*
X4129015Y-6598484D01*
X4262348Y-6398484D02*
X4281396Y-6398484D01*
X4281396Y-6398484D02*
X4300444Y-6408008D01*
X4300444Y-6408008D02*
X4309968Y-6417531D01*
X4309968Y-6417531D02*
X4319491Y-6436579D01*
X4319491Y-6436579D02*
X4329015Y-6474674D01*
X4329015Y-6474674D02*
X4329015Y-6522293D01*
X4329015Y-6522293D02*
X4319491Y-6560388D01*
X4319491Y-6560388D02*
X4309968Y-6579436D01*
X4309968Y-6579436D02*
X4300444Y-6588960D01*
X4300444Y-6588960D02*
X4281396Y-6598484D01*
X4281396Y-6598484D02*
X4262348Y-6598484D01*
X4262348Y-6598484D02*
X4243301Y-6588960D01*
X4243301Y-6588960D02*
X4233777Y-6579436D01*
X4233777Y-6579436D02*
X4224253Y-6560388D01*
X4224253Y-6560388D02*
X4214729Y-6522293D01*
X4214729Y-6522293D02*
X4214729Y-6474674D01*
X4214729Y-6474674D02*
X4224253Y-6436579D01*
X4224253Y-6436579D02*
X4233777Y-6417531D01*
X4233777Y-6417531D02*
X4243301Y-6408008D01*
X4243301Y-6408008D02*
X4262348Y-6398484D01*
X4395682Y-6398484D02*
X4519491Y-6398484D01*
X4519491Y-6398484D02*
X4452825Y-6474674D01*
X4452825Y-6474674D02*
X4481396Y-6474674D01*
X4481396Y-6474674D02*
X4500444Y-6484198D01*
X4500444Y-6484198D02*
X4509968Y-6493722D01*
X4509968Y-6493722D02*
X4519491Y-6512769D01*
X4519491Y-6512769D02*
X4519491Y-6560388D01*
X4519491Y-6560388D02*
X4509968Y-6579436D01*
X4509968Y-6579436D02*
X4500444Y-6588960D01*
X4500444Y-6588960D02*
X4481396Y-6598484D01*
X4481396Y-6598484D02*
X4424253Y-6598484D01*
X4424253Y-6598484D02*
X4405206Y-6588960D01*
X4405206Y-6588960D02*
X4395682Y-6579436D01*
X4614729Y-6598484D02*
X4652825Y-6598484D01*
X4652825Y-6598484D02*
X4671872Y-6588960D01*
X4671872Y-6588960D02*
X4681396Y-6579436D01*
X4681396Y-6579436D02*
X4700444Y-6550865D01*
X4700444Y-6550865D02*
X4709968Y-6512769D01*
X4709968Y-6512769D02*
X4709968Y-6436579D01*
X4709968Y-6436579D02*
X4700444Y-6417531D01*
X4700444Y-6417531D02*
X4690920Y-6408008D01*
X4690920Y-6408008D02*
X4671872Y-6398484D01*
X4671872Y-6398484D02*
X4633777Y-6398484D01*
X4633777Y-6398484D02*
X4614729Y-6408008D01*
X4614729Y-6408008D02*
X4605206Y-6417531D01*
X4605206Y-6417531D02*
X4595682Y-6436579D01*
X4595682Y-6436579D02*
X4595682Y-6484198D01*
X4595682Y-6484198D02*
X4605206Y-6503246D01*
X4605206Y-6503246D02*
X4614729Y-6512769D01*
X4614729Y-6512769D02*
X4633777Y-6522293D01*
X4633777Y-6522293D02*
X4671872Y-6522293D01*
X4671872Y-6522293D02*
X4690920Y-6512769D01*
X4690920Y-6512769D02*
X4700444Y-6503246D01*
X4700444Y-6503246D02*
X4709968Y-6484198D01*
X4881396Y-6465150D02*
X4881396Y-6598484D01*
X4833777Y-6388960D02*
X4786158Y-6531817D01*
X4786158Y-6531817D02*
X4909968Y-6531817D01*
X4976634Y-6398484D02*
X4976634Y-6436579D01*
X5052825Y-6398484D02*
X5052825Y-6436579D01*
X5348063Y-6674674D02*
X5338539Y-6665150D01*
X5338539Y-6665150D02*
X5319491Y-6636579D01*
X5319491Y-6636579D02*
X5309968Y-6617531D01*
X5309968Y-6617531D02*
X5300444Y-6588960D01*
X5300444Y-6588960D02*
X5290920Y-6541341D01*
X5290920Y-6541341D02*
X5290920Y-6503246D01*
X5290920Y-6503246D02*
X5300444Y-6455627D01*
X5300444Y-6455627D02*
X5309968Y-6427055D01*
X5309968Y-6427055D02*
X5319491Y-6408008D01*
X5319491Y-6408008D02*
X5338539Y-6379436D01*
X5338539Y-6379436D02*
X5348063Y-6369912D01*
X5509968Y-6398484D02*
X5471872Y-6398484D01*
X5471872Y-6398484D02*
X5452825Y-6408008D01*
X5452825Y-6408008D02*
X5443301Y-6417531D01*
X5443301Y-6417531D02*
X5424253Y-6446103D01*
X5424253Y-6446103D02*
X5414730Y-6484198D01*
X5414730Y-6484198D02*
X5414730Y-6560388D01*
X5414730Y-6560388D02*
X5424253Y-6579436D01*
X5424253Y-6579436D02*
X5433777Y-6588960D01*
X5433777Y-6588960D02*
X5452825Y-6598484D01*
X5452825Y-6598484D02*
X5490920Y-6598484D01*
X5490920Y-6598484D02*
X5509968Y-6588960D01*
X5509968Y-6588960D02*
X5519491Y-6579436D01*
X5519491Y-6579436D02*
X5529015Y-6560388D01*
X5529015Y-6560388D02*
X5529015Y-6512769D01*
X5529015Y-6512769D02*
X5519491Y-6493722D01*
X5519491Y-6493722D02*
X5509968Y-6484198D01*
X5509968Y-6484198D02*
X5490920Y-6474674D01*
X5490920Y-6474674D02*
X5452825Y-6474674D01*
X5452825Y-6474674D02*
X5433777Y-6484198D01*
X5433777Y-6484198D02*
X5424253Y-6493722D01*
X5424253Y-6493722D02*
X5414730Y-6512769D01*
X5767110Y-6598484D02*
X5767110Y-6398484D01*
X5852825Y-6598484D02*
X5852825Y-6493722D01*
X5852825Y-6493722D02*
X5843301Y-6474674D01*
X5843301Y-6474674D02*
X5824253Y-6465150D01*
X5824253Y-6465150D02*
X5795682Y-6465150D01*
X5795682Y-6465150D02*
X5776634Y-6474674D01*
X5776634Y-6474674D02*
X5767110Y-6484198D01*
X5976634Y-6598484D02*
X5957587Y-6588960D01*
X5957587Y-6588960D02*
X5948063Y-6579436D01*
X5948063Y-6579436D02*
X5938539Y-6560388D01*
X5938539Y-6560388D02*
X5938539Y-6503246D01*
X5938539Y-6503246D02*
X5948063Y-6484198D01*
X5948063Y-6484198D02*
X5957587Y-6474674D01*
X5957587Y-6474674D02*
X5976634Y-6465150D01*
X5976634Y-6465150D02*
X6005206Y-6465150D01*
X6005206Y-6465150D02*
X6024253Y-6474674D01*
X6024253Y-6474674D02*
X6033777Y-6484198D01*
X6033777Y-6484198D02*
X6043301Y-6503246D01*
X6043301Y-6503246D02*
X6043301Y-6560388D01*
X6043301Y-6560388D02*
X6033777Y-6579436D01*
X6033777Y-6579436D02*
X6024253Y-6588960D01*
X6024253Y-6588960D02*
X6005206Y-6598484D01*
X6005206Y-6598484D02*
X5976634Y-6598484D01*
X6157587Y-6598484D02*
X6138539Y-6588960D01*
X6138539Y-6588960D02*
X6129015Y-6569912D01*
X6129015Y-6569912D02*
X6129015Y-6398484D01*
X6309968Y-6588960D02*
X6290920Y-6598484D01*
X6290920Y-6598484D02*
X6252825Y-6598484D01*
X6252825Y-6598484D02*
X6233777Y-6588960D01*
X6233777Y-6588960D02*
X6224253Y-6569912D01*
X6224253Y-6569912D02*
X6224253Y-6493722D01*
X6224253Y-6493722D02*
X6233777Y-6474674D01*
X6233777Y-6474674D02*
X6252825Y-6465150D01*
X6252825Y-6465150D02*
X6290920Y-6465150D01*
X6290920Y-6465150D02*
X6309968Y-6474674D01*
X6309968Y-6474674D02*
X6319491Y-6493722D01*
X6319491Y-6493722D02*
X6319491Y-6512769D01*
X6319491Y-6512769D02*
X6224253Y-6531817D01*
X6395682Y-6588960D02*
X6414730Y-6598484D01*
X6414730Y-6598484D02*
X6452825Y-6598484D01*
X6452825Y-6598484D02*
X6471872Y-6588960D01*
X6471872Y-6588960D02*
X6481396Y-6569912D01*
X6481396Y-6569912D02*
X6481396Y-6560388D01*
X6481396Y-6560388D02*
X6471872Y-6541341D01*
X6471872Y-6541341D02*
X6452825Y-6531817D01*
X6452825Y-6531817D02*
X6424253Y-6531817D01*
X6424253Y-6531817D02*
X6405206Y-6522293D01*
X6405206Y-6522293D02*
X6395682Y-6503246D01*
X6395682Y-6503246D02*
X6395682Y-6493722D01*
X6395682Y-6493722D02*
X6405206Y-6474674D01*
X6405206Y-6474674D02*
X6424253Y-6465150D01*
X6424253Y-6465150D02*
X6452825Y-6465150D01*
X6452825Y-6465150D02*
X6471872Y-6474674D01*
X6548063Y-6674674D02*
X6557587Y-6665150D01*
X6557587Y-6665150D02*
X6576634Y-6636579D01*
X6576634Y-6636579D02*
X6586158Y-6617531D01*
X6586158Y-6617531D02*
X6595682Y-6588960D01*
X6595682Y-6588960D02*
X6605206Y-6541341D01*
X6605206Y-6541341D02*
X6605206Y-6503246D01*
X6605206Y-6503246D02*
X6595682Y-6455627D01*
X6595682Y-6455627D02*
X6586158Y-6427055D01*
X6586158Y-6427055D02*
X6576634Y-6408008D01*
X6576634Y-6408008D02*
X6557587Y-6379436D01*
X6557587Y-6379436D02*
X6548063Y-6369912D01*
D14*
X1756891Y-6809891D02*
X1756891Y-6732109D01*
X1679109Y-6732109D01*
X1679109Y-6809891D01*
X1756891Y-6809891D01*
D11*
X2138539Y-6862484D02*
X2024253Y-6862484D01*
X2081396Y-6862484D02*
X2081396Y-6662484D01*
X2081396Y-6662484D02*
X2062348Y-6691055D01*
X2062348Y-6691055D02*
X2043301Y-6710103D01*
X2043301Y-6710103D02*
X2024253Y-6719627D01*
X2224253Y-6843436D02*
X2233777Y-6852960D01*
X2233777Y-6852960D02*
X2224253Y-6862484D01*
X2224253Y-6862484D02*
X2214729Y-6852960D01*
X2214729Y-6852960D02*
X2224253Y-6843436D01*
X2224253Y-6843436D02*
X2224253Y-6862484D01*
X2424253Y-6862484D02*
X2309967Y-6862484D01*
X2367110Y-6862484D02*
X2367110Y-6662484D01*
X2367110Y-6662484D02*
X2348063Y-6691055D01*
X2348063Y-6691055D02*
X2329015Y-6710103D01*
X2329015Y-6710103D02*
X2309967Y-6719627D01*
X2548063Y-6662484D02*
X2567110Y-6662484D01*
X2567110Y-6662484D02*
X2586158Y-6672008D01*
X2586158Y-6672008D02*
X2595682Y-6681531D01*
X2595682Y-6681531D02*
X2605205Y-6700579D01*
X2605205Y-6700579D02*
X2614729Y-6738674D01*
X2614729Y-6738674D02*
X2614729Y-6786293D01*
X2614729Y-6786293D02*
X2605205Y-6824388D01*
X2605205Y-6824388D02*
X2595682Y-6843436D01*
X2595682Y-6843436D02*
X2586158Y-6852960D01*
X2586158Y-6852960D02*
X2567110Y-6862484D01*
X2567110Y-6862484D02*
X2548063Y-6862484D01*
X2548063Y-6862484D02*
X2529015Y-6852960D01*
X2529015Y-6852960D02*
X2519491Y-6843436D01*
X2519491Y-6843436D02*
X2509967Y-6824388D01*
X2509967Y-6824388D02*
X2500444Y-6786293D01*
X2500444Y-6786293D02*
X2500444Y-6738674D01*
X2500444Y-6738674D02*
X2509967Y-6700579D01*
X2509967Y-6700579D02*
X2519491Y-6681531D01*
X2519491Y-6681531D02*
X2529015Y-6672008D01*
X2529015Y-6672008D02*
X2548063Y-6662484D01*
X2738539Y-6662484D02*
X2757586Y-6662484D01*
X2757586Y-6662484D02*
X2776634Y-6672008D01*
X2776634Y-6672008D02*
X2786158Y-6681531D01*
X2786158Y-6681531D02*
X2795682Y-6700579D01*
X2795682Y-6700579D02*
X2805205Y-6738674D01*
X2805205Y-6738674D02*
X2805205Y-6786293D01*
X2805205Y-6786293D02*
X2795682Y-6824388D01*
X2795682Y-6824388D02*
X2786158Y-6843436D01*
X2786158Y-6843436D02*
X2776634Y-6852960D01*
X2776634Y-6852960D02*
X2757586Y-6862484D01*
X2757586Y-6862484D02*
X2738539Y-6862484D01*
X2738539Y-6862484D02*
X2719491Y-6852960D01*
X2719491Y-6852960D02*
X2709967Y-6843436D01*
X2709967Y-6843436D02*
X2700444Y-6824388D01*
X2700444Y-6824388D02*
X2690920Y-6786293D01*
X2690920Y-6786293D02*
X2690920Y-6738674D01*
X2690920Y-6738674D02*
X2700444Y-6700579D01*
X2700444Y-6700579D02*
X2709967Y-6681531D01*
X2709967Y-6681531D02*
X2719491Y-6672008D01*
X2719491Y-6672008D02*
X2738539Y-6662484D01*
X2890920Y-6862484D02*
X2890920Y-6729150D01*
X2890920Y-6748198D02*
X2900443Y-6738674D01*
X2900443Y-6738674D02*
X2919491Y-6729150D01*
X2919491Y-6729150D02*
X2948063Y-6729150D01*
X2948063Y-6729150D02*
X2967110Y-6738674D01*
X2967110Y-6738674D02*
X2976634Y-6757722D01*
X2976634Y-6757722D02*
X2976634Y-6862484D01*
X2976634Y-6757722D02*
X2986158Y-6738674D01*
X2986158Y-6738674D02*
X3005205Y-6729150D01*
X3005205Y-6729150D02*
X3033777Y-6729150D01*
X3033777Y-6729150D02*
X3052824Y-6738674D01*
X3052824Y-6738674D02*
X3062348Y-6757722D01*
X3062348Y-6757722D02*
X3062348Y-6862484D01*
X3157586Y-6862484D02*
X3157586Y-6729150D01*
X3157586Y-6748198D02*
X3167110Y-6738674D01*
X3167110Y-6738674D02*
X3186158Y-6729150D01*
X3186158Y-6729150D02*
X3214729Y-6729150D01*
X3214729Y-6729150D02*
X3233777Y-6738674D01*
X3233777Y-6738674D02*
X3243301Y-6757722D01*
X3243301Y-6757722D02*
X3243301Y-6862484D01*
X3243301Y-6757722D02*
X3252824Y-6738674D01*
X3252824Y-6738674D02*
X3271872Y-6729150D01*
X3271872Y-6729150D02*
X3300443Y-6729150D01*
X3300443Y-6729150D02*
X3319491Y-6738674D01*
X3319491Y-6738674D02*
X3329015Y-6757722D01*
X3329015Y-6757722D02*
X3329015Y-6862484D01*
X3719491Y-6652960D02*
X3548063Y-6910103D01*
X3976634Y-6662484D02*
X3995682Y-6662484D01*
X3995682Y-6662484D02*
X4014729Y-6672008D01*
X4014729Y-6672008D02*
X4024253Y-6681531D01*
X4024253Y-6681531D02*
X4033777Y-6700579D01*
X4033777Y-6700579D02*
X4043301Y-6738674D01*
X4043301Y-6738674D02*
X4043301Y-6786293D01*
X4043301Y-6786293D02*
X4033777Y-6824388D01*
X4033777Y-6824388D02*
X4024253Y-6843436D01*
X4024253Y-6843436D02*
X4014729Y-6852960D01*
X4014729Y-6852960D02*
X3995682Y-6862484D01*
X3995682Y-6862484D02*
X3976634Y-6862484D01*
X3976634Y-6862484D02*
X3957586Y-6852960D01*
X3957586Y-6852960D02*
X3948063Y-6843436D01*
X3948063Y-6843436D02*
X3938539Y-6824388D01*
X3938539Y-6824388D02*
X3929015Y-6786293D01*
X3929015Y-6786293D02*
X3929015Y-6738674D01*
X3929015Y-6738674D02*
X3938539Y-6700579D01*
X3938539Y-6700579D02*
X3948063Y-6681531D01*
X3948063Y-6681531D02*
X3957586Y-6672008D01*
X3957586Y-6672008D02*
X3976634Y-6662484D01*
X4129015Y-6843436D02*
X4138539Y-6852960D01*
X4138539Y-6852960D02*
X4129015Y-6862484D01*
X4129015Y-6862484D02*
X4119491Y-6852960D01*
X4119491Y-6852960D02*
X4129015Y-6843436D01*
X4129015Y-6843436D02*
X4129015Y-6862484D01*
X4262348Y-6662484D02*
X4281396Y-6662484D01*
X4281396Y-6662484D02*
X4300444Y-6672008D01*
X4300444Y-6672008D02*
X4309968Y-6681531D01*
X4309968Y-6681531D02*
X4319491Y-6700579D01*
X4319491Y-6700579D02*
X4329015Y-6738674D01*
X4329015Y-6738674D02*
X4329015Y-6786293D01*
X4329015Y-6786293D02*
X4319491Y-6824388D01*
X4319491Y-6824388D02*
X4309968Y-6843436D01*
X4309968Y-6843436D02*
X4300444Y-6852960D01*
X4300444Y-6852960D02*
X4281396Y-6862484D01*
X4281396Y-6862484D02*
X4262348Y-6862484D01*
X4262348Y-6862484D02*
X4243301Y-6852960D01*
X4243301Y-6852960D02*
X4233777Y-6843436D01*
X4233777Y-6843436D02*
X4224253Y-6824388D01*
X4224253Y-6824388D02*
X4214729Y-6786293D01*
X4214729Y-6786293D02*
X4214729Y-6738674D01*
X4214729Y-6738674D02*
X4224253Y-6700579D01*
X4224253Y-6700579D02*
X4233777Y-6681531D01*
X4233777Y-6681531D02*
X4243301Y-6672008D01*
X4243301Y-6672008D02*
X4262348Y-6662484D01*
X4500444Y-6729150D02*
X4500444Y-6862484D01*
X4452825Y-6652960D02*
X4405206Y-6795817D01*
X4405206Y-6795817D02*
X4529015Y-6795817D01*
X4586158Y-6662484D02*
X4709968Y-6662484D01*
X4709968Y-6662484D02*
X4643301Y-6738674D01*
X4643301Y-6738674D02*
X4671872Y-6738674D01*
X4671872Y-6738674D02*
X4690920Y-6748198D01*
X4690920Y-6748198D02*
X4700444Y-6757722D01*
X4700444Y-6757722D02*
X4709968Y-6776769D01*
X4709968Y-6776769D02*
X4709968Y-6824388D01*
X4709968Y-6824388D02*
X4700444Y-6843436D01*
X4700444Y-6843436D02*
X4690920Y-6852960D01*
X4690920Y-6852960D02*
X4671872Y-6862484D01*
X4671872Y-6862484D02*
X4614729Y-6862484D01*
X4614729Y-6862484D02*
X4595682Y-6852960D01*
X4595682Y-6852960D02*
X4586158Y-6843436D01*
X4776634Y-6662484D02*
X4900444Y-6662484D01*
X4900444Y-6662484D02*
X4833777Y-6738674D01*
X4833777Y-6738674D02*
X4862349Y-6738674D01*
X4862349Y-6738674D02*
X4881396Y-6748198D01*
X4881396Y-6748198D02*
X4890920Y-6757722D01*
X4890920Y-6757722D02*
X4900444Y-6776769D01*
X4900444Y-6776769D02*
X4900444Y-6824388D01*
X4900444Y-6824388D02*
X4890920Y-6843436D01*
X4890920Y-6843436D02*
X4881396Y-6852960D01*
X4881396Y-6852960D02*
X4862349Y-6862484D01*
X4862349Y-6862484D02*
X4805206Y-6862484D01*
X4805206Y-6862484D02*
X4786158Y-6852960D01*
X4786158Y-6852960D02*
X4776634Y-6843436D01*
X4976634Y-6662484D02*
X4976634Y-6700579D01*
X5052825Y-6662484D02*
X5052825Y-6700579D01*
X5348063Y-6938674D02*
X5338539Y-6929150D01*
X5338539Y-6929150D02*
X5319491Y-6900579D01*
X5319491Y-6900579D02*
X5309968Y-6881531D01*
X5309968Y-6881531D02*
X5300444Y-6852960D01*
X5300444Y-6852960D02*
X5290920Y-6805341D01*
X5290920Y-6805341D02*
X5290920Y-6767246D01*
X5290920Y-6767246D02*
X5300444Y-6719627D01*
X5300444Y-6719627D02*
X5309968Y-6691055D01*
X5309968Y-6691055D02*
X5319491Y-6672008D01*
X5319491Y-6672008D02*
X5338539Y-6643436D01*
X5338539Y-6643436D02*
X5348063Y-6633912D01*
X5529015Y-6862484D02*
X5414730Y-6862484D01*
X5471872Y-6862484D02*
X5471872Y-6662484D01*
X5471872Y-6662484D02*
X5452825Y-6691055D01*
X5452825Y-6691055D02*
X5433777Y-6710103D01*
X5433777Y-6710103D02*
X5414730Y-6719627D01*
X5605206Y-6681531D02*
X5614729Y-6672008D01*
X5614729Y-6672008D02*
X5633777Y-6662484D01*
X5633777Y-6662484D02*
X5681396Y-6662484D01*
X5681396Y-6662484D02*
X5700444Y-6672008D01*
X5700444Y-6672008D02*
X5709968Y-6681531D01*
X5709968Y-6681531D02*
X5719491Y-6700579D01*
X5719491Y-6700579D02*
X5719491Y-6719627D01*
X5719491Y-6719627D02*
X5709968Y-6748198D01*
X5709968Y-6748198D02*
X5595682Y-6862484D01*
X5595682Y-6862484D02*
X5719491Y-6862484D01*
X5957587Y-6862484D02*
X5957587Y-6662484D01*
X6043301Y-6862484D02*
X6043301Y-6757722D01*
X6043301Y-6757722D02*
X6033777Y-6738674D01*
X6033777Y-6738674D02*
X6014730Y-6729150D01*
X6014730Y-6729150D02*
X5986158Y-6729150D01*
X5986158Y-6729150D02*
X5967110Y-6738674D01*
X5967110Y-6738674D02*
X5957587Y-6748198D01*
X6167110Y-6862484D02*
X6148063Y-6852960D01*
X6148063Y-6852960D02*
X6138539Y-6843436D01*
X6138539Y-6843436D02*
X6129015Y-6824388D01*
X6129015Y-6824388D02*
X6129015Y-6767246D01*
X6129015Y-6767246D02*
X6138539Y-6748198D01*
X6138539Y-6748198D02*
X6148063Y-6738674D01*
X6148063Y-6738674D02*
X6167110Y-6729150D01*
X6167110Y-6729150D02*
X6195682Y-6729150D01*
X6195682Y-6729150D02*
X6214730Y-6738674D01*
X6214730Y-6738674D02*
X6224253Y-6748198D01*
X6224253Y-6748198D02*
X6233777Y-6767246D01*
X6233777Y-6767246D02*
X6233777Y-6824388D01*
X6233777Y-6824388D02*
X6224253Y-6843436D01*
X6224253Y-6843436D02*
X6214730Y-6852960D01*
X6214730Y-6852960D02*
X6195682Y-6862484D01*
X6195682Y-6862484D02*
X6167110Y-6862484D01*
X6348063Y-6862484D02*
X6329015Y-6852960D01*
X6329015Y-6852960D02*
X6319491Y-6833912D01*
X6319491Y-6833912D02*
X6319491Y-6662484D01*
X6500444Y-6852960D02*
X6481396Y-6862484D01*
X6481396Y-6862484D02*
X6443301Y-6862484D01*
X6443301Y-6862484D02*
X6424253Y-6852960D01*
X6424253Y-6852960D02*
X6414730Y-6833912D01*
X6414730Y-6833912D02*
X6414730Y-6757722D01*
X6414730Y-6757722D02*
X6424253Y-6738674D01*
X6424253Y-6738674D02*
X6443301Y-6729150D01*
X6443301Y-6729150D02*
X6481396Y-6729150D01*
X6481396Y-6729150D02*
X6500444Y-6738674D01*
X6500444Y-6738674D02*
X6509968Y-6757722D01*
X6509968Y-6757722D02*
X6509968Y-6776769D01*
X6509968Y-6776769D02*
X6414730Y-6795817D01*
X6586158Y-6852960D02*
X6605206Y-6862484D01*
X6605206Y-6862484D02*
X6643301Y-6862484D01*
X6643301Y-6862484D02*
X6662349Y-6852960D01*
X6662349Y-6852960D02*
X6671872Y-6833912D01*
X6671872Y-6833912D02*
X6671872Y-6824388D01*
X6671872Y-6824388D02*
X6662349Y-6805341D01*
X6662349Y-6805341D02*
X6643301Y-6795817D01*
X6643301Y-6795817D02*
X6614730Y-6795817D01*
X6614730Y-6795817D02*
X6595682Y-6786293D01*
X6595682Y-6786293D02*
X6586158Y-6767246D01*
X6586158Y-6767246D02*
X6586158Y-6757722D01*
X6586158Y-6757722D02*
X6595682Y-6738674D01*
X6595682Y-6738674D02*
X6614730Y-6729150D01*
X6614730Y-6729150D02*
X6643301Y-6729150D01*
X6643301Y-6729150D02*
X6662349Y-6738674D01*
X6738539Y-6938674D02*
X6748063Y-6929150D01*
X6748063Y-6929150D02*
X6767111Y-6900579D01*
X6767111Y-6900579D02*
X6776634Y-6881531D01*
X6776634Y-6881531D02*
X6786158Y-6852960D01*
X6786158Y-6852960D02*
X6795682Y-6805341D01*
X6795682Y-6805341D02*
X6795682Y-6767246D01*
X6795682Y-6767246D02*
X6786158Y-6719627D01*
X6786158Y-6719627D02*
X6776634Y-6691055D01*
X6776634Y-6691055D02*
X6767111Y-6672008D01*
X6767111Y-6672008D02*
X6748063Y-6643436D01*
X6748063Y-6643436D02*
X6738539Y-6633912D01*
D15*
X1703000Y-7105000D02*
X1773000Y-7035000D01*
X1703000Y-6965000D01*
X1633000Y-7035000D01*
X1703000Y-7105000D01*
D11*
X2138539Y-7126484D02*
X2024253Y-7126484D01*
X2081396Y-7126484D02*
X2081396Y-6926484D01*
X2081396Y-6926484D02*
X2062348Y-6955055D01*
X2062348Y-6955055D02*
X2043301Y-6974103D01*
X2043301Y-6974103D02*
X2024253Y-6983627D01*
X2224253Y-7107436D02*
X2233777Y-7116960D01*
X2233777Y-7116960D02*
X2224253Y-7126484D01*
X2224253Y-7126484D02*
X2214729Y-7116960D01*
X2214729Y-7116960D02*
X2224253Y-7107436D01*
X2224253Y-7107436D02*
X2224253Y-7126484D01*
X2405205Y-6993150D02*
X2405205Y-7126484D01*
X2357586Y-6916960D02*
X2309967Y-7059817D01*
X2309967Y-7059817D02*
X2433777Y-7059817D01*
X2548063Y-6926484D02*
X2567110Y-6926484D01*
X2567110Y-6926484D02*
X2586158Y-6936008D01*
X2586158Y-6936008D02*
X2595682Y-6945531D01*
X2595682Y-6945531D02*
X2605205Y-6964579D01*
X2605205Y-6964579D02*
X2614729Y-7002674D01*
X2614729Y-7002674D02*
X2614729Y-7050293D01*
X2614729Y-7050293D02*
X2605205Y-7088388D01*
X2605205Y-7088388D02*
X2595682Y-7107436D01*
X2595682Y-7107436D02*
X2586158Y-7116960D01*
X2586158Y-7116960D02*
X2567110Y-7126484D01*
X2567110Y-7126484D02*
X2548063Y-7126484D01*
X2548063Y-7126484D02*
X2529015Y-7116960D01*
X2529015Y-7116960D02*
X2519491Y-7107436D01*
X2519491Y-7107436D02*
X2509967Y-7088388D01*
X2509967Y-7088388D02*
X2500444Y-7050293D01*
X2500444Y-7050293D02*
X2500444Y-7002674D01*
X2500444Y-7002674D02*
X2509967Y-6964579D01*
X2509967Y-6964579D02*
X2519491Y-6945531D01*
X2519491Y-6945531D02*
X2529015Y-6936008D01*
X2529015Y-6936008D02*
X2548063Y-6926484D01*
X2738539Y-6926484D02*
X2757586Y-6926484D01*
X2757586Y-6926484D02*
X2776634Y-6936008D01*
X2776634Y-6936008D02*
X2786158Y-6945531D01*
X2786158Y-6945531D02*
X2795682Y-6964579D01*
X2795682Y-6964579D02*
X2805205Y-7002674D01*
X2805205Y-7002674D02*
X2805205Y-7050293D01*
X2805205Y-7050293D02*
X2795682Y-7088388D01*
X2795682Y-7088388D02*
X2786158Y-7107436D01*
X2786158Y-7107436D02*
X2776634Y-7116960D01*
X2776634Y-7116960D02*
X2757586Y-7126484D01*
X2757586Y-7126484D02*
X2738539Y-7126484D01*
X2738539Y-7126484D02*
X2719491Y-7116960D01*
X2719491Y-7116960D02*
X2709967Y-7107436D01*
X2709967Y-7107436D02*
X2700444Y-7088388D01*
X2700444Y-7088388D02*
X2690920Y-7050293D01*
X2690920Y-7050293D02*
X2690920Y-7002674D01*
X2690920Y-7002674D02*
X2700444Y-6964579D01*
X2700444Y-6964579D02*
X2709967Y-6945531D01*
X2709967Y-6945531D02*
X2719491Y-6936008D01*
X2719491Y-6936008D02*
X2738539Y-6926484D01*
X2890920Y-7126484D02*
X2890920Y-6993150D01*
X2890920Y-7012198D02*
X2900443Y-7002674D01*
X2900443Y-7002674D02*
X2919491Y-6993150D01*
X2919491Y-6993150D02*
X2948063Y-6993150D01*
X2948063Y-6993150D02*
X2967110Y-7002674D01*
X2967110Y-7002674D02*
X2976634Y-7021722D01*
X2976634Y-7021722D02*
X2976634Y-7126484D01*
X2976634Y-7021722D02*
X2986158Y-7002674D01*
X2986158Y-7002674D02*
X3005205Y-6993150D01*
X3005205Y-6993150D02*
X3033777Y-6993150D01*
X3033777Y-6993150D02*
X3052824Y-7002674D01*
X3052824Y-7002674D02*
X3062348Y-7021722D01*
X3062348Y-7021722D02*
X3062348Y-7126484D01*
X3157586Y-7126484D02*
X3157586Y-6993150D01*
X3157586Y-7012198D02*
X3167110Y-7002674D01*
X3167110Y-7002674D02*
X3186158Y-6993150D01*
X3186158Y-6993150D02*
X3214729Y-6993150D01*
X3214729Y-6993150D02*
X3233777Y-7002674D01*
X3233777Y-7002674D02*
X3243301Y-7021722D01*
X3243301Y-7021722D02*
X3243301Y-7126484D01*
X3243301Y-7021722D02*
X3252824Y-7002674D01*
X3252824Y-7002674D02*
X3271872Y-6993150D01*
X3271872Y-6993150D02*
X3300443Y-6993150D01*
X3300443Y-6993150D02*
X3319491Y-7002674D01*
X3319491Y-7002674D02*
X3329015Y-7021722D01*
X3329015Y-7021722D02*
X3329015Y-7126484D01*
X3719491Y-6916960D02*
X3548063Y-7174103D01*
X3976634Y-6926484D02*
X3995682Y-6926484D01*
X3995682Y-6926484D02*
X4014729Y-6936008D01*
X4014729Y-6936008D02*
X4024253Y-6945531D01*
X4024253Y-6945531D02*
X4033777Y-6964579D01*
X4033777Y-6964579D02*
X4043301Y-7002674D01*
X4043301Y-7002674D02*
X4043301Y-7050293D01*
X4043301Y-7050293D02*
X4033777Y-7088388D01*
X4033777Y-7088388D02*
X4024253Y-7107436D01*
X4024253Y-7107436D02*
X4014729Y-7116960D01*
X4014729Y-7116960D02*
X3995682Y-7126484D01*
X3995682Y-7126484D02*
X3976634Y-7126484D01*
X3976634Y-7126484D02*
X3957586Y-7116960D01*
X3957586Y-7116960D02*
X3948063Y-7107436D01*
X3948063Y-7107436D02*
X3938539Y-7088388D01*
X3938539Y-7088388D02*
X3929015Y-7050293D01*
X3929015Y-7050293D02*
X3929015Y-7002674D01*
X3929015Y-7002674D02*
X3938539Y-6964579D01*
X3938539Y-6964579D02*
X3948063Y-6945531D01*
X3948063Y-6945531D02*
X3957586Y-6936008D01*
X3957586Y-6936008D02*
X3976634Y-6926484D01*
X4129015Y-7107436D02*
X4138539Y-7116960D01*
X4138539Y-7116960D02*
X4129015Y-7126484D01*
X4129015Y-7126484D02*
X4119491Y-7116960D01*
X4119491Y-7116960D02*
X4129015Y-7107436D01*
X4129015Y-7107436D02*
X4129015Y-7126484D01*
X4262348Y-6926484D02*
X4281396Y-6926484D01*
X4281396Y-6926484D02*
X4300444Y-6936008D01*
X4300444Y-6936008D02*
X4309968Y-6945531D01*
X4309968Y-6945531D02*
X4319491Y-6964579D01*
X4319491Y-6964579D02*
X4329015Y-7002674D01*
X4329015Y-7002674D02*
X4329015Y-7050293D01*
X4329015Y-7050293D02*
X4319491Y-7088388D01*
X4319491Y-7088388D02*
X4309968Y-7107436D01*
X4309968Y-7107436D02*
X4300444Y-7116960D01*
X4300444Y-7116960D02*
X4281396Y-7126484D01*
X4281396Y-7126484D02*
X4262348Y-7126484D01*
X4262348Y-7126484D02*
X4243301Y-7116960D01*
X4243301Y-7116960D02*
X4233777Y-7107436D01*
X4233777Y-7107436D02*
X4224253Y-7088388D01*
X4224253Y-7088388D02*
X4214729Y-7050293D01*
X4214729Y-7050293D02*
X4214729Y-7002674D01*
X4214729Y-7002674D02*
X4224253Y-6964579D01*
X4224253Y-6964579D02*
X4233777Y-6945531D01*
X4233777Y-6945531D02*
X4243301Y-6936008D01*
X4243301Y-6936008D02*
X4262348Y-6926484D01*
X4509968Y-6926484D02*
X4414729Y-6926484D01*
X4414729Y-6926484D02*
X4405206Y-7021722D01*
X4405206Y-7021722D02*
X4414729Y-7012198D01*
X4414729Y-7012198D02*
X4433777Y-7002674D01*
X4433777Y-7002674D02*
X4481396Y-7002674D01*
X4481396Y-7002674D02*
X4500444Y-7012198D01*
X4500444Y-7012198D02*
X4509968Y-7021722D01*
X4509968Y-7021722D02*
X4519491Y-7040769D01*
X4519491Y-7040769D02*
X4519491Y-7088388D01*
X4519491Y-7088388D02*
X4509968Y-7107436D01*
X4509968Y-7107436D02*
X4500444Y-7116960D01*
X4500444Y-7116960D02*
X4481396Y-7126484D01*
X4481396Y-7126484D02*
X4433777Y-7126484D01*
X4433777Y-7126484D02*
X4414729Y-7116960D01*
X4414729Y-7116960D02*
X4405206Y-7107436D01*
X4700444Y-6926484D02*
X4605206Y-6926484D01*
X4605206Y-6926484D02*
X4595682Y-7021722D01*
X4595682Y-7021722D02*
X4605206Y-7012198D01*
X4605206Y-7012198D02*
X4624253Y-7002674D01*
X4624253Y-7002674D02*
X4671872Y-7002674D01*
X4671872Y-7002674D02*
X4690920Y-7012198D01*
X4690920Y-7012198D02*
X4700444Y-7021722D01*
X4700444Y-7021722D02*
X4709968Y-7040769D01*
X4709968Y-7040769D02*
X4709968Y-7088388D01*
X4709968Y-7088388D02*
X4700444Y-7107436D01*
X4700444Y-7107436D02*
X4690920Y-7116960D01*
X4690920Y-7116960D02*
X4671872Y-7126484D01*
X4671872Y-7126484D02*
X4624253Y-7126484D01*
X4624253Y-7126484D02*
X4605206Y-7116960D01*
X4605206Y-7116960D02*
X4595682Y-7107436D01*
X4900444Y-7126484D02*
X4786158Y-7126484D01*
X4843301Y-7126484D02*
X4843301Y-6926484D01*
X4843301Y-6926484D02*
X4824253Y-6955055D01*
X4824253Y-6955055D02*
X4805206Y-6974103D01*
X4805206Y-6974103D02*
X4786158Y-6983627D01*
X4976634Y-6926484D02*
X4976634Y-6964579D01*
X5052825Y-6926484D02*
X5052825Y-6964579D01*
X5348063Y-7202674D02*
X5338539Y-7193150D01*
X5338539Y-7193150D02*
X5319491Y-7164579D01*
X5319491Y-7164579D02*
X5309968Y-7145531D01*
X5309968Y-7145531D02*
X5300444Y-7116960D01*
X5300444Y-7116960D02*
X5290920Y-7069341D01*
X5290920Y-7069341D02*
X5290920Y-7031246D01*
X5290920Y-7031246D02*
X5300444Y-6983627D01*
X5300444Y-6983627D02*
X5309968Y-6955055D01*
X5309968Y-6955055D02*
X5319491Y-6936008D01*
X5319491Y-6936008D02*
X5338539Y-6907436D01*
X5338539Y-6907436D02*
X5348063Y-6897912D01*
X5509968Y-6926484D02*
X5471872Y-6926484D01*
X5471872Y-6926484D02*
X5452825Y-6936008D01*
X5452825Y-6936008D02*
X5443301Y-6945531D01*
X5443301Y-6945531D02*
X5424253Y-6974103D01*
X5424253Y-6974103D02*
X5414730Y-7012198D01*
X5414730Y-7012198D02*
X5414730Y-7088388D01*
X5414730Y-7088388D02*
X5424253Y-7107436D01*
X5424253Y-7107436D02*
X5433777Y-7116960D01*
X5433777Y-7116960D02*
X5452825Y-7126484D01*
X5452825Y-7126484D02*
X5490920Y-7126484D01*
X5490920Y-7126484D02*
X5509968Y-7116960D01*
X5509968Y-7116960D02*
X5519491Y-7107436D01*
X5519491Y-7107436D02*
X5529015Y-7088388D01*
X5529015Y-7088388D02*
X5529015Y-7040769D01*
X5529015Y-7040769D02*
X5519491Y-7021722D01*
X5519491Y-7021722D02*
X5509968Y-7012198D01*
X5509968Y-7012198D02*
X5490920Y-7002674D01*
X5490920Y-7002674D02*
X5452825Y-7002674D01*
X5452825Y-7002674D02*
X5433777Y-7012198D01*
X5433777Y-7012198D02*
X5424253Y-7021722D01*
X5424253Y-7021722D02*
X5414730Y-7040769D01*
X5767110Y-7126484D02*
X5767110Y-6926484D01*
X5852825Y-7126484D02*
X5852825Y-7021722D01*
X5852825Y-7021722D02*
X5843301Y-7002674D01*
X5843301Y-7002674D02*
X5824253Y-6993150D01*
X5824253Y-6993150D02*
X5795682Y-6993150D01*
X5795682Y-6993150D02*
X5776634Y-7002674D01*
X5776634Y-7002674D02*
X5767110Y-7012198D01*
X5976634Y-7126484D02*
X5957587Y-7116960D01*
X5957587Y-7116960D02*
X5948063Y-7107436D01*
X5948063Y-7107436D02*
X5938539Y-7088388D01*
X5938539Y-7088388D02*
X5938539Y-7031246D01*
X5938539Y-7031246D02*
X5948063Y-7012198D01*
X5948063Y-7012198D02*
X5957587Y-7002674D01*
X5957587Y-7002674D02*
X5976634Y-6993150D01*
X5976634Y-6993150D02*
X6005206Y-6993150D01*
X6005206Y-6993150D02*
X6024253Y-7002674D01*
X6024253Y-7002674D02*
X6033777Y-7012198D01*
X6033777Y-7012198D02*
X6043301Y-7031246D01*
X6043301Y-7031246D02*
X6043301Y-7088388D01*
X6043301Y-7088388D02*
X6033777Y-7107436D01*
X6033777Y-7107436D02*
X6024253Y-7116960D01*
X6024253Y-7116960D02*
X6005206Y-7126484D01*
X6005206Y-7126484D02*
X5976634Y-7126484D01*
X6157587Y-7126484D02*
X6138539Y-7116960D01*
X6138539Y-7116960D02*
X6129015Y-7097912D01*
X6129015Y-7097912D02*
X6129015Y-6926484D01*
X6309968Y-7116960D02*
X6290920Y-7126484D01*
X6290920Y-7126484D02*
X6252825Y-7126484D01*
X6252825Y-7126484D02*
X6233777Y-7116960D01*
X6233777Y-7116960D02*
X6224253Y-7097912D01*
X6224253Y-7097912D02*
X6224253Y-7021722D01*
X6224253Y-7021722D02*
X6233777Y-7002674D01*
X6233777Y-7002674D02*
X6252825Y-6993150D01*
X6252825Y-6993150D02*
X6290920Y-6993150D01*
X6290920Y-6993150D02*
X6309968Y-7002674D01*
X6309968Y-7002674D02*
X6319491Y-7021722D01*
X6319491Y-7021722D02*
X6319491Y-7040769D01*
X6319491Y-7040769D02*
X6224253Y-7059817D01*
X6395682Y-7116960D02*
X6414730Y-7126484D01*
X6414730Y-7126484D02*
X6452825Y-7126484D01*
X6452825Y-7126484D02*
X6471872Y-7116960D01*
X6471872Y-7116960D02*
X6481396Y-7097912D01*
X6481396Y-7097912D02*
X6481396Y-7088388D01*
X6481396Y-7088388D02*
X6471872Y-7069341D01*
X6471872Y-7069341D02*
X6452825Y-7059817D01*
X6452825Y-7059817D02*
X6424253Y-7059817D01*
X6424253Y-7059817D02*
X6405206Y-7050293D01*
X6405206Y-7050293D02*
X6395682Y-7031246D01*
X6395682Y-7031246D02*
X6395682Y-7021722D01*
X6395682Y-7021722D02*
X6405206Y-7002674D01*
X6405206Y-7002674D02*
X6424253Y-6993150D01*
X6424253Y-6993150D02*
X6452825Y-6993150D01*
X6452825Y-6993150D02*
X6471872Y-7002674D01*
X6548063Y-7202674D02*
X6557587Y-7193150D01*
X6557587Y-7193150D02*
X6576634Y-7164579D01*
X6576634Y-7164579D02*
X6586158Y-7145531D01*
X6586158Y-7145531D02*
X6595682Y-7116960D01*
X6595682Y-7116960D02*
X6605206Y-7069341D01*
X6605206Y-7069341D02*
X6605206Y-7031246D01*
X6605206Y-7031246D02*
X6595682Y-6983627D01*
X6595682Y-6983627D02*
X6586158Y-6955055D01*
X6586158Y-6955055D02*
X6576634Y-6936008D01*
X6576634Y-6936008D02*
X6557587Y-6907436D01*
X6557587Y-6907436D02*
X6548063Y-6897912D01*
D16*
X1613000Y-7219000D02*
X1773000Y-7379000D01*
X1773000Y-7219000D02*
X1613000Y-7379000D01*
X1773000Y-7299000D02*
G75*
G03*
X1773000Y-7299000I-80000J0D01*
G01*
D11*
X2138539Y-7390484D02*
X2024253Y-7390484D01*
X2081396Y-7390484D02*
X2081396Y-7190484D01*
X2081396Y-7190484D02*
X2062348Y-7219055D01*
X2062348Y-7219055D02*
X2043301Y-7238103D01*
X2043301Y-7238103D02*
X2024253Y-7247627D01*
X2224253Y-7371436D02*
X2233777Y-7380960D01*
X2233777Y-7380960D02*
X2224253Y-7390484D01*
X2224253Y-7390484D02*
X2214729Y-7380960D01*
X2214729Y-7380960D02*
X2224253Y-7371436D01*
X2224253Y-7371436D02*
X2224253Y-7390484D01*
X2405205Y-7190484D02*
X2367110Y-7190484D01*
X2367110Y-7190484D02*
X2348063Y-7200008D01*
X2348063Y-7200008D02*
X2338539Y-7209531D01*
X2338539Y-7209531D02*
X2319491Y-7238103D01*
X2319491Y-7238103D02*
X2309967Y-7276198D01*
X2309967Y-7276198D02*
X2309967Y-7352388D01*
X2309967Y-7352388D02*
X2319491Y-7371436D01*
X2319491Y-7371436D02*
X2329015Y-7380960D01*
X2329015Y-7380960D02*
X2348063Y-7390484D01*
X2348063Y-7390484D02*
X2386158Y-7390484D01*
X2386158Y-7390484D02*
X2405205Y-7380960D01*
X2405205Y-7380960D02*
X2414729Y-7371436D01*
X2414729Y-7371436D02*
X2424253Y-7352388D01*
X2424253Y-7352388D02*
X2424253Y-7304769D01*
X2424253Y-7304769D02*
X2414729Y-7285722D01*
X2414729Y-7285722D02*
X2405205Y-7276198D01*
X2405205Y-7276198D02*
X2386158Y-7266674D01*
X2386158Y-7266674D02*
X2348063Y-7266674D01*
X2348063Y-7266674D02*
X2329015Y-7276198D01*
X2329015Y-7276198D02*
X2319491Y-7285722D01*
X2319491Y-7285722D02*
X2309967Y-7304769D01*
X2548063Y-7190484D02*
X2567110Y-7190484D01*
X2567110Y-7190484D02*
X2586158Y-7200008D01*
X2586158Y-7200008D02*
X2595682Y-7209531D01*
X2595682Y-7209531D02*
X2605205Y-7228579D01*
X2605205Y-7228579D02*
X2614729Y-7266674D01*
X2614729Y-7266674D02*
X2614729Y-7314293D01*
X2614729Y-7314293D02*
X2605205Y-7352388D01*
X2605205Y-7352388D02*
X2595682Y-7371436D01*
X2595682Y-7371436D02*
X2586158Y-7380960D01*
X2586158Y-7380960D02*
X2567110Y-7390484D01*
X2567110Y-7390484D02*
X2548063Y-7390484D01*
X2548063Y-7390484D02*
X2529015Y-7380960D01*
X2529015Y-7380960D02*
X2519491Y-7371436D01*
X2519491Y-7371436D02*
X2509967Y-7352388D01*
X2509967Y-7352388D02*
X2500444Y-7314293D01*
X2500444Y-7314293D02*
X2500444Y-7266674D01*
X2500444Y-7266674D02*
X2509967Y-7228579D01*
X2509967Y-7228579D02*
X2519491Y-7209531D01*
X2519491Y-7209531D02*
X2529015Y-7200008D01*
X2529015Y-7200008D02*
X2548063Y-7190484D01*
X2738539Y-7190484D02*
X2757586Y-7190484D01*
X2757586Y-7190484D02*
X2776634Y-7200008D01*
X2776634Y-7200008D02*
X2786158Y-7209531D01*
X2786158Y-7209531D02*
X2795682Y-7228579D01*
X2795682Y-7228579D02*
X2805205Y-7266674D01*
X2805205Y-7266674D02*
X2805205Y-7314293D01*
X2805205Y-7314293D02*
X2795682Y-7352388D01*
X2795682Y-7352388D02*
X2786158Y-7371436D01*
X2786158Y-7371436D02*
X2776634Y-7380960D01*
X2776634Y-7380960D02*
X2757586Y-7390484D01*
X2757586Y-7390484D02*
X2738539Y-7390484D01*
X2738539Y-7390484D02*
X2719491Y-7380960D01*
X2719491Y-7380960D02*
X2709967Y-7371436D01*
X2709967Y-7371436D02*
X2700444Y-7352388D01*
X2700444Y-7352388D02*
X2690920Y-7314293D01*
X2690920Y-7314293D02*
X2690920Y-7266674D01*
X2690920Y-7266674D02*
X2700444Y-7228579D01*
X2700444Y-7228579D02*
X2709967Y-7209531D01*
X2709967Y-7209531D02*
X2719491Y-7200008D01*
X2719491Y-7200008D02*
X2738539Y-7190484D01*
X2890920Y-7390484D02*
X2890920Y-7257150D01*
X2890920Y-7276198D02*
X2900443Y-7266674D01*
X2900443Y-7266674D02*
X2919491Y-7257150D01*
X2919491Y-7257150D02*
X2948063Y-7257150D01*
X2948063Y-7257150D02*
X2967110Y-7266674D01*
X2967110Y-7266674D02*
X2976634Y-7285722D01*
X2976634Y-7285722D02*
X2976634Y-7390484D01*
X2976634Y-7285722D02*
X2986158Y-7266674D01*
X2986158Y-7266674D02*
X3005205Y-7257150D01*
X3005205Y-7257150D02*
X3033777Y-7257150D01*
X3033777Y-7257150D02*
X3052824Y-7266674D01*
X3052824Y-7266674D02*
X3062348Y-7285722D01*
X3062348Y-7285722D02*
X3062348Y-7390484D01*
X3157586Y-7390484D02*
X3157586Y-7257150D01*
X3157586Y-7276198D02*
X3167110Y-7266674D01*
X3167110Y-7266674D02*
X3186158Y-7257150D01*
X3186158Y-7257150D02*
X3214729Y-7257150D01*
X3214729Y-7257150D02*
X3233777Y-7266674D01*
X3233777Y-7266674D02*
X3243301Y-7285722D01*
X3243301Y-7285722D02*
X3243301Y-7390484D01*
X3243301Y-7285722D02*
X3252824Y-7266674D01*
X3252824Y-7266674D02*
X3271872Y-7257150D01*
X3271872Y-7257150D02*
X3300443Y-7257150D01*
X3300443Y-7257150D02*
X3319491Y-7266674D01*
X3319491Y-7266674D02*
X3329015Y-7285722D01*
X3329015Y-7285722D02*
X3329015Y-7390484D01*
X3719491Y-7180960D02*
X3548063Y-7438103D01*
X3976634Y-7190484D02*
X3995682Y-7190484D01*
X3995682Y-7190484D02*
X4014729Y-7200008D01*
X4014729Y-7200008D02*
X4024253Y-7209531D01*
X4024253Y-7209531D02*
X4033777Y-7228579D01*
X4033777Y-7228579D02*
X4043301Y-7266674D01*
X4043301Y-7266674D02*
X4043301Y-7314293D01*
X4043301Y-7314293D02*
X4033777Y-7352388D01*
X4033777Y-7352388D02*
X4024253Y-7371436D01*
X4024253Y-7371436D02*
X4014729Y-7380960D01*
X4014729Y-7380960D02*
X3995682Y-7390484D01*
X3995682Y-7390484D02*
X3976634Y-7390484D01*
X3976634Y-7390484D02*
X3957586Y-7380960D01*
X3957586Y-7380960D02*
X3948063Y-7371436D01*
X3948063Y-7371436D02*
X3938539Y-7352388D01*
X3938539Y-7352388D02*
X3929015Y-7314293D01*
X3929015Y-7314293D02*
X3929015Y-7266674D01*
X3929015Y-7266674D02*
X3938539Y-7228579D01*
X3938539Y-7228579D02*
X3948063Y-7209531D01*
X3948063Y-7209531D02*
X3957586Y-7200008D01*
X3957586Y-7200008D02*
X3976634Y-7190484D01*
X4129015Y-7371436D02*
X4138539Y-7380960D01*
X4138539Y-7380960D02*
X4129015Y-7390484D01*
X4129015Y-7390484D02*
X4119491Y-7380960D01*
X4119491Y-7380960D02*
X4129015Y-7371436D01*
X4129015Y-7371436D02*
X4129015Y-7390484D01*
X4262348Y-7190484D02*
X4281396Y-7190484D01*
X4281396Y-7190484D02*
X4300444Y-7200008D01*
X4300444Y-7200008D02*
X4309968Y-7209531D01*
X4309968Y-7209531D02*
X4319491Y-7228579D01*
X4319491Y-7228579D02*
X4329015Y-7266674D01*
X4329015Y-7266674D02*
X4329015Y-7314293D01*
X4329015Y-7314293D02*
X4319491Y-7352388D01*
X4319491Y-7352388D02*
X4309968Y-7371436D01*
X4309968Y-7371436D02*
X4300444Y-7380960D01*
X4300444Y-7380960D02*
X4281396Y-7390484D01*
X4281396Y-7390484D02*
X4262348Y-7390484D01*
X4262348Y-7390484D02*
X4243301Y-7380960D01*
X4243301Y-7380960D02*
X4233777Y-7371436D01*
X4233777Y-7371436D02*
X4224253Y-7352388D01*
X4224253Y-7352388D02*
X4214729Y-7314293D01*
X4214729Y-7314293D02*
X4214729Y-7266674D01*
X4214729Y-7266674D02*
X4224253Y-7228579D01*
X4224253Y-7228579D02*
X4233777Y-7209531D01*
X4233777Y-7209531D02*
X4243301Y-7200008D01*
X4243301Y-7200008D02*
X4262348Y-7190484D01*
X4500444Y-7190484D02*
X4462348Y-7190484D01*
X4462348Y-7190484D02*
X4443301Y-7200008D01*
X4443301Y-7200008D02*
X4433777Y-7209531D01*
X4433777Y-7209531D02*
X4414729Y-7238103D01*
X4414729Y-7238103D02*
X4405206Y-7276198D01*
X4405206Y-7276198D02*
X4405206Y-7352388D01*
X4405206Y-7352388D02*
X4414729Y-7371436D01*
X4414729Y-7371436D02*
X4424253Y-7380960D01*
X4424253Y-7380960D02*
X4443301Y-7390484D01*
X4443301Y-7390484D02*
X4481396Y-7390484D01*
X4481396Y-7390484D02*
X4500444Y-7380960D01*
X4500444Y-7380960D02*
X4509968Y-7371436D01*
X4509968Y-7371436D02*
X4519491Y-7352388D01*
X4519491Y-7352388D02*
X4519491Y-7304769D01*
X4519491Y-7304769D02*
X4509968Y-7285722D01*
X4509968Y-7285722D02*
X4500444Y-7276198D01*
X4500444Y-7276198D02*
X4481396Y-7266674D01*
X4481396Y-7266674D02*
X4443301Y-7266674D01*
X4443301Y-7266674D02*
X4424253Y-7276198D01*
X4424253Y-7276198D02*
X4414729Y-7285722D01*
X4414729Y-7285722D02*
X4405206Y-7304769D01*
X4586158Y-7190484D02*
X4709968Y-7190484D01*
X4709968Y-7190484D02*
X4643301Y-7266674D01*
X4643301Y-7266674D02*
X4671872Y-7266674D01*
X4671872Y-7266674D02*
X4690920Y-7276198D01*
X4690920Y-7276198D02*
X4700444Y-7285722D01*
X4700444Y-7285722D02*
X4709968Y-7304769D01*
X4709968Y-7304769D02*
X4709968Y-7352388D01*
X4709968Y-7352388D02*
X4700444Y-7371436D01*
X4700444Y-7371436D02*
X4690920Y-7380960D01*
X4690920Y-7380960D02*
X4671872Y-7390484D01*
X4671872Y-7390484D02*
X4614729Y-7390484D01*
X4614729Y-7390484D02*
X4595682Y-7380960D01*
X4595682Y-7380960D02*
X4586158Y-7371436D01*
X4833777Y-7190484D02*
X4852825Y-7190484D01*
X4852825Y-7190484D02*
X4871872Y-7200008D01*
X4871872Y-7200008D02*
X4881396Y-7209531D01*
X4881396Y-7209531D02*
X4890920Y-7228579D01*
X4890920Y-7228579D02*
X4900444Y-7266674D01*
X4900444Y-7266674D02*
X4900444Y-7314293D01*
X4900444Y-7314293D02*
X4890920Y-7352388D01*
X4890920Y-7352388D02*
X4881396Y-7371436D01*
X4881396Y-7371436D02*
X4871872Y-7380960D01*
X4871872Y-7380960D02*
X4852825Y-7390484D01*
X4852825Y-7390484D02*
X4833777Y-7390484D01*
X4833777Y-7390484D02*
X4814729Y-7380960D01*
X4814729Y-7380960D02*
X4805206Y-7371436D01*
X4805206Y-7371436D02*
X4795682Y-7352388D01*
X4795682Y-7352388D02*
X4786158Y-7314293D01*
X4786158Y-7314293D02*
X4786158Y-7266674D01*
X4786158Y-7266674D02*
X4795682Y-7228579D01*
X4795682Y-7228579D02*
X4805206Y-7209531D01*
X4805206Y-7209531D02*
X4814729Y-7200008D01*
X4814729Y-7200008D02*
X4833777Y-7190484D01*
X4976634Y-7190484D02*
X4976634Y-7228579D01*
X5052825Y-7190484D02*
X5052825Y-7228579D01*
X5348063Y-7466674D02*
X5338539Y-7457150D01*
X5338539Y-7457150D02*
X5319491Y-7428579D01*
X5319491Y-7428579D02*
X5309968Y-7409531D01*
X5309968Y-7409531D02*
X5300444Y-7380960D01*
X5300444Y-7380960D02*
X5290920Y-7333341D01*
X5290920Y-7333341D02*
X5290920Y-7295246D01*
X5290920Y-7295246D02*
X5300444Y-7247627D01*
X5300444Y-7247627D02*
X5309968Y-7219055D01*
X5309968Y-7219055D02*
X5319491Y-7200008D01*
X5319491Y-7200008D02*
X5338539Y-7171436D01*
X5338539Y-7171436D02*
X5348063Y-7161912D01*
X5509968Y-7190484D02*
X5471872Y-7190484D01*
X5471872Y-7190484D02*
X5452825Y-7200008D01*
X5452825Y-7200008D02*
X5443301Y-7209531D01*
X5443301Y-7209531D02*
X5424253Y-7238103D01*
X5424253Y-7238103D02*
X5414730Y-7276198D01*
X5414730Y-7276198D02*
X5414730Y-7352388D01*
X5414730Y-7352388D02*
X5424253Y-7371436D01*
X5424253Y-7371436D02*
X5433777Y-7380960D01*
X5433777Y-7380960D02*
X5452825Y-7390484D01*
X5452825Y-7390484D02*
X5490920Y-7390484D01*
X5490920Y-7390484D02*
X5509968Y-7380960D01*
X5509968Y-7380960D02*
X5519491Y-7371436D01*
X5519491Y-7371436D02*
X5529015Y-7352388D01*
X5529015Y-7352388D02*
X5529015Y-7304769D01*
X5529015Y-7304769D02*
X5519491Y-7285722D01*
X5519491Y-7285722D02*
X5509968Y-7276198D01*
X5509968Y-7276198D02*
X5490920Y-7266674D01*
X5490920Y-7266674D02*
X5452825Y-7266674D01*
X5452825Y-7266674D02*
X5433777Y-7276198D01*
X5433777Y-7276198D02*
X5424253Y-7285722D01*
X5424253Y-7285722D02*
X5414730Y-7304769D01*
X5767110Y-7390484D02*
X5767110Y-7190484D01*
X5852825Y-7390484D02*
X5852825Y-7285722D01*
X5852825Y-7285722D02*
X5843301Y-7266674D01*
X5843301Y-7266674D02*
X5824253Y-7257150D01*
X5824253Y-7257150D02*
X5795682Y-7257150D01*
X5795682Y-7257150D02*
X5776634Y-7266674D01*
X5776634Y-7266674D02*
X5767110Y-7276198D01*
X5976634Y-7390484D02*
X5957587Y-7380960D01*
X5957587Y-7380960D02*
X5948063Y-7371436D01*
X5948063Y-7371436D02*
X5938539Y-7352388D01*
X5938539Y-7352388D02*
X5938539Y-7295246D01*
X5938539Y-7295246D02*
X5948063Y-7276198D01*
X5948063Y-7276198D02*
X5957587Y-7266674D01*
X5957587Y-7266674D02*
X5976634Y-7257150D01*
X5976634Y-7257150D02*
X6005206Y-7257150D01*
X6005206Y-7257150D02*
X6024253Y-7266674D01*
X6024253Y-7266674D02*
X6033777Y-7276198D01*
X6033777Y-7276198D02*
X6043301Y-7295246D01*
X6043301Y-7295246D02*
X6043301Y-7352388D01*
X6043301Y-7352388D02*
X6033777Y-7371436D01*
X6033777Y-7371436D02*
X6024253Y-7380960D01*
X6024253Y-7380960D02*
X6005206Y-7390484D01*
X6005206Y-7390484D02*
X5976634Y-7390484D01*
X6157587Y-7390484D02*
X6138539Y-7380960D01*
X6138539Y-7380960D02*
X6129015Y-7361912D01*
X6129015Y-7361912D02*
X6129015Y-7190484D01*
X6309968Y-7380960D02*
X6290920Y-7390484D01*
X6290920Y-7390484D02*
X6252825Y-7390484D01*
X6252825Y-7390484D02*
X6233777Y-7380960D01*
X6233777Y-7380960D02*
X6224253Y-7361912D01*
X6224253Y-7361912D02*
X6224253Y-7285722D01*
X6224253Y-7285722D02*
X6233777Y-7266674D01*
X6233777Y-7266674D02*
X6252825Y-7257150D01*
X6252825Y-7257150D02*
X6290920Y-7257150D01*
X6290920Y-7257150D02*
X6309968Y-7266674D01*
X6309968Y-7266674D02*
X6319491Y-7285722D01*
X6319491Y-7285722D02*
X6319491Y-7304769D01*
X6319491Y-7304769D02*
X6224253Y-7323817D01*
X6395682Y-7380960D02*
X6414730Y-7390484D01*
X6414730Y-7390484D02*
X6452825Y-7390484D01*
X6452825Y-7390484D02*
X6471872Y-7380960D01*
X6471872Y-7380960D02*
X6481396Y-7361912D01*
X6481396Y-7361912D02*
X6481396Y-7352388D01*
X6481396Y-7352388D02*
X6471872Y-7333341D01*
X6471872Y-7333341D02*
X6452825Y-7323817D01*
X6452825Y-7323817D02*
X6424253Y-7323817D01*
X6424253Y-7323817D02*
X6405206Y-7314293D01*
X6405206Y-7314293D02*
X6395682Y-7295246D01*
X6395682Y-7295246D02*
X6395682Y-7285722D01*
X6395682Y-7285722D02*
X6405206Y-7266674D01*
X6405206Y-7266674D02*
X6424253Y-7257150D01*
X6424253Y-7257150D02*
X6452825Y-7257150D01*
X6452825Y-7257150D02*
X6471872Y-7266674D01*
X6548063Y-7466674D02*
X6557587Y-7457150D01*
X6557587Y-7457150D02*
X6576634Y-7428579D01*
X6576634Y-7428579D02*
X6586158Y-7409531D01*
X6586158Y-7409531D02*
X6595682Y-7380960D01*
X6595682Y-7380960D02*
X6605206Y-7333341D01*
X6605206Y-7333341D02*
X6605206Y-7295246D01*
X6605206Y-7295246D02*
X6595682Y-7247627D01*
X6595682Y-7247627D02*
X6586158Y-7219055D01*
X6586158Y-7219055D02*
X6576634Y-7200008D01*
X6576634Y-7200008D02*
X6557587Y-7171436D01*
X6557587Y-7171436D02*
X6548063Y-7161912D01*
M02*
